<?xml version="1.0" encoding="utf-8"?>
<!-- Generator: Adobe Illustrator 16.0.0, SVG Export Plug-In . SVG Version: 6.00 Build 0)  -->
<!DOCTYPE svg PUBLIC "-//W3C//DTD SVG 1.1//EN" "http://www.w3.org/Graphics/SVG/1.1/DTD/svg11.dtd">
<svg version="1.1" id="Layer_1" xmlns="http://www.w3.org/2000/svg" xmlns:xlink="http://www.w3.org/1999/xlink" x="0px" y="0px"
	 width="50px" height="50px" viewBox="0 0 50 50" enable-background="new 0 0 50 50" xml:space="preserve">
<path d="M26.213,34.125v-7.446l11.875-14.252H11.911l11.875,14.252v7.446c-3.444,0.28-6.073,1.71-6.073,3.447h14.576
	C32.289,35.835,29.66,34.404,26.213,34.125z M25.479,20.744c-0.683,0-1.236-0.553-1.236-1.238c0-0.683,0.554-1.238,1.236-1.238
	c0.684,0,1.239,0.555,1.239,1.238C26.719,20.19,26.163,20.744,25.479,20.744z M33.483,14.585l-1.064,1.276L19.39,18.032
	l-2.874-3.447H33.483z"/>
</svg>
