<?xml version="1.0" encoding="UTF-8" standalone="no"?>
<svg
   xmlns:dc="http://purl.org/dc/elements/1.1/"
   xmlns:cc="http://creativecommons.org/ns#"
   xmlns:rdf="http://www.w3.org/1999/02/22-rdf-syntax-ns#"
   xmlns:svg="http://www.w3.org/2000/svg"
   xmlns="http://www.w3.org/2000/svg"
   viewBox="0 0 1506.4133 991.30133"
   height="991.30133"
   width="1506.4133"
   xml:space="preserve"
   id="svg2"
   version="1.1"><metadata
     id="metadata8"><rdf:RDF><cc:Work
         rdf:about=""><dc:format>image/svg+xml</dc:format><dc:type
           rdf:resource="http://purl.org/dc/dcmitype/StillImage" /></cc:Work></rdf:RDF></metadata><defs
     id="defs6"><clipPath
       id="clipPath18"
       clipPathUnits="userSpaceOnUse"><path
         id="path16"
         d="M 0,743.476 H 1129.812 V 0 H 0 Z" /></clipPath></defs><g
     transform="matrix(1.3333333,0,0,-1.3333333,0,991.30133)"
     id="g10"><g
       id="g12"><g
         clip-path="url(#clipPath18)"
         id="g14"><g
           transform="translate(785.7205,619.8531)"
           id="g20"><path
             id="path22"
             style="fill:#ff4b57;fill-opacity:1;fill-rule:nonzero;stroke:none"
             d="m 0,0 c 0,-34.833 -15.254,-52.364 -46.217,-52.364 -30.734,0 -45.988,17.303 -45.988,52.364 v 121.12 h 28.914 V 0.911 c 0,-16.62 4.78,-22.995 17.303,-22.995 12.521,0 17.074,6.147 17.074,22.995 V 121.12 H 0 Z" /></g><g
           transform="translate(383.9207,712.5137)"
           id="g24"><path
             id="path26"
             style="fill:#ff4b57;fill-opacity:1;fill-rule:nonzero;stroke:none"
             d="M 0,0 H -11.383 V -47.127 H 0 c 11.611,0 16.165,3.643 16.165,23.677 C 16.165,-4.326 11.611,0 0,0 m 27.093,-66.934 25.726,-75.358 H 20.49 L 0.456,-72.854 h -11.839 v -69.438 H -40.297 V 28.459 H -1.82 c 32.783,0 47.809,-13.661 47.809,-51.226 0,-24.36 -6.602,-38.703 -18.896,-44.167" /></g><g
           transform="translate(215.4333,78.2633)"
           id="g28"><path
             id="path30"
             style="fill:#ff4b57;fill-opacity:1;fill-rule:nonzero;stroke:none"
             d="M 0,0 -174.737,297.192 0,594.336 174.736,297.192 Z" /></g><g
           transform="translate(564.906,78.2633)"
           id="g32"><path
             id="path34"
             style="fill:#ff4b57;fill-opacity:1;fill-rule:nonzero;stroke:none"
             d="M 0,0 -174.736,297.192 0,594.336 174.736,297.192 Z" /></g><g
           transform="translate(914.3796,78.2633)"
           id="g36"><path
             id="path38"
             style="fill:#ff4b57;fill-opacity:1;fill-rule:nonzero;stroke:none"
             d="M 0,0 -174.737,297.192 0,594.336 174.736,297.192 Z" /></g><g
           transform="translate(430.5564,32.2515)"
           id="g40"><path
             id="path42"
             style="fill:#ff4b57;fill-opacity:1;fill-rule:nonzero;stroke:none"
             d="m 0,0 -0.91,-29.598 h -79.863 v 170.751 h 29.369 L -51.404,0 Z" /></g><g
           transform="translate(785.7205,52.3648)"
           id="g44"><path
             id="path46"
             style="fill:#ff4b57;fill-opacity:1;fill-rule:nonzero;stroke:none"
             d="m 0,0 c 0,-34.834 -15.254,-52.365 -46.217,-52.365 -30.734,0 -45.988,17.303 -45.988,52.365 v 121.119 h 28.914 V 0.91 c 0,-16.62 4.78,-22.995 17.303,-22.995 12.521,0 17.074,6.147 17.074,22.995 V 121.119 H 0 Z" /></g><g
           transform="translate(1082.6853,712.8238)"
           id="g48"><path
             id="path50"
             style="fill:#ff4b57;fill-opacity:1;fill-rule:nonzero;stroke:none"
             d="m 0,0 h -15.026 v -40.98 h 14.571 c 11.61,0 15.253,5.692 15.253,20.945 C 14.798,-4.098 10.473,0 0,0 M 0,-67.845 H -15.254 V -114.29 H 1.365 c 10.7,0 15.938,4.782 15.938,23.678 0,16.848 -4.326,22.767 -17.303,22.767 m 0.228,-74.447 H -43.485 V 28.459 H 1.138 c 27.548,0 41.891,-14.799 41.891,-43.258 0,-18.212 -6.602,-30.052 -17.531,-35.972 v -0.454 c 13.205,-5.464 21.629,-17.531 21.629,-41.664 0,-30.507 -14.115,-49.403 -46.899,-49.403" /></g><g
           transform="translate(1082.6853,145.2564)"
           id="g52"><path
             id="path54"
             style="fill:#ff4b57;fill-opacity:1;fill-rule:nonzero;stroke:none"
             d="m 0,0 h -15.026 v -40.979 h 14.571 c 11.61,0 15.253,5.691 15.253,20.944 C 14.798,-4.098 10.473,0 0,0 m 0,-67.845 h -15.254 v -46.444 H 1.365 c 10.7,0 15.938,4.781 15.938,23.678 0,16.846 -4.326,22.766 -17.303,22.766 m 0.228,-74.448 H -43.485 V 28.459 H 1.138 c 27.548,0 41.891,-14.799 41.891,-43.258 0,-18.213 -6.602,-30.052 -17.531,-35.972 v -0.455 c 13.205,-5.463 21.629,-17.53 21.629,-41.663 0,-30.507 -14.115,-49.404 -46.899,-49.404" /></g><g
           transform="translate(90.7254,8.9361)"
           id="g56"><path
             id="path58"
             style="fill:#ff4b57;fill-opacity:1;fill-rule:nonzero;stroke:none"
             d="m 0,0 -2.632,27.191 c -6.779,-3.654 -16.8,-6.191 -26.837,-7.054 -0.122,-0.012 -1.053,-0.103 -1.053,-0.103 -1.008,-0.075 -2.014,-0.108 -3.059,-0.108 -19.579,0 -26.864,11.838 -26.864,60.559 0,45.761 7.057,56.917 25.953,56.917 1.306,0 2.646,-0.079 3.991,-0.209 l 0.001,0.002 c 10.341,-0.769 20.784,-3.355 27.795,-7.112 L 0,158.024 c -7.832,5.213 -22.076,8.689 -35.494,9.127 -0.823,0.046 -1.642,0.075 -2.412,0.075 -36.199,0 -52.82,-24.816 -52.82,-86.514 0,-65.567 16.165,-89.701 52.364,-89.701 0.517,0 1.004,-0.002 1.532,0.013 l 0.036,0.001 C -23.165,-8.975 -8.048,-5.462 0,0" /></g><g
           transform="translate(55.0593,664.0201)"
           id="g60"><path
             id="path62"
             style="fill:#ff4b57;fill-opacity:1;fill-rule:nonzero;stroke:none"
             d="m 0,0 -0.554,-27.53 h 9.696 v -37.583 c -3.187,-1.138 -6.83,-1.593 -10.7,-1.593 -16.847,0 -23.222,9.334 -23.222,58.511 0,47.809 6.602,58.51 28.231,58.51 9.107,0 19.124,-2.277 26.637,-5.919 l 2.96,28.231 c -8.423,4.098 -20.717,6.829 -31.418,6.829 -38.932,0 -56.69,-23.222 -56.69,-87.879 0,-62.609 14.116,-88.108 54.185,-88.108 13.888,0 28.231,3.415 36.427,8.88 l 0,87.651 z" /></g></g></g></g></svg>