<svg xmlns="http://www.w3.org/2000/svg" style="display: none;">
    <symbol id="icon-X-close" viewBox="0 0 12 11">
      <title>icon-X-close icon</title>
      <path d="M3 11l3-4 3 4h3L8 5.438 12 0H9L6 4 3 0H0l4 5.406L0 11z"/>
    </symbol>
    <symbol id="icon-apple" viewBox="0 0 31 38">
      <title>icon-apple icon</title>
      <path d="M25.02 10.607c-4.76-2.035-5.966.2-9.223.33l-.058-.612s1.94-2.15 6.465-3.284C26.73 5.91 28.47.36 28.47.36s-5.515-1.22-8.902.824c-3.385 2.043-3.977 8.183-3.977 8.183s-.02-5.92-.725-7.657c-.706-1.74-2.73-.894-2.73 0 0 .893.746 1.12 1.238 1.752.398.514 1.132 5.56 1.395 7.45-3.074-.274-4.962-2.13-8.792-.57C1.85 12.026 0 16.772 0 20.147c0 4.782 4.82 15.11 11.38 17.725 1.313.523 2.918-.702 4.12-.702s2.926.975 3.88.703C26.534 35.836 31 25.21 31 20.147c0-3.402-1.074-7.444-5.98-9.54z"/>
    </symbol>
    <symbol id="icon-arrow_12x22" viewBox="0 0 12 22">
      <title>icon-arrow_12x22 icon</title>
      <path d="M1.96 22L12 11 1.96 0 0 1.78 8.415 11 0 20.22z"/>
    </symbol>
    <symbol id="icon-arrow_17x31" viewBox="0 0 17 31">
      <title>icon-arrow_17x31 icon</title>
      <path d="M17 14.815L2.18 0 0 2.182 13.32 15.5 0 28.818 2.18 31 17 16.185z"/>
    </symbol>
    <symbol id="icon-arrow_6x11" viewBox="0 0 6 11">
      <title>icon-arrow_6x11 icon</title>
      <path d="M.7 11L6 5.71v-.42L.7 0 0 .7l4.81 4.8L0 10.3z"/>
    </symbol>
    <symbol id="icon-arrow_8x14" viewBox="0 0 8 14">
      <title>icon-arrow_8x14 icon</title>
      <path d="M1.333 14L8 7.328v-.656L1.333 0 0 1.334 5.66 7 0 12.665z"/>
    </symbol>
    <symbol id="icon-baby_prams" viewBox="0 0 37 33.001">
      <title>icon-baby_prams icon</title>
      <path d="M25 0h-1c-1.302-.02-2.945.554-3 2v9h16c0-6.136-5.198-11-12-11zM7.553 13L3.958 9.407C3.985 9.277 4 9.14 4 9c0-1.103-.896-2-2-2s-2 .897-2 2 .896 2 2 2c.14 0 .275-.014.406-.04L6 14.553V18c0 3.427 2.157 6.34 5.184 7.48-.73.8-1.184 1.854-1.184 3.02 0 2.486 2.015 4.5 4.5 4.5s4.5-2.014 4.5-4.5c0-.925-.28-1.784-.76-2.5h6.52c-.48.716-.76 1.575-.76 2.5 0 2.486 2.015 4.5 4.5 4.5s4.5-2.014 4.5-4.5c0-1.166-.456-2.22-1.184-3.02C34.843 24.34 37 21.428 37 18v-4c0-.34-.028-.67-.07-1H7.554zM14.5 30c-.83 0-1.5-.67-1.5-1.5 0-.828.67-1.5 1.5-1.5s1.5.672 1.5 1.5c0 .83-.67 1.5-1.5 1.5zm14 0c-.83 0-1.5-.67-1.5-1.5 0-.828.67-1.5 1.5-1.5s1.5.672 1.5 1.5c0 .83-.67 1.5-1.5 1.5z"/>
    </symbol>
    <symbol id="icon-bell" viewBox="0 0 9 11">
      <title>icon-bell icon</title>
      <path d="M3.1 9c-.056.158-.1.322-.1.5 0 .828.67 1.5 1.5 1.5S6 10.328 6 9.5c0-.178-.044-.342-.1-.5h3.05c.023-.165.05-.33.05-.5 0-1.394-.82-2.588-2-3.15V2.5C7 1.12 5.88 0 4.5 0S2 1.12 2 2.5v2.85C.82 5.912 0 7.106 0 8.5c0 .17.026.335.05.5H3.1z"/>
    </symbol>
    <symbol id="icon-big_user" viewBox="0 0 32 37">
      <title>icon-big_user icon</title>
      <path d="M16 22c6.074 0 11-4.925 11-11S22.074 0 16 0C9.925 0 5 4.925 5 11s4.925 11 11 11zm6 1c-1.676 1.052-3.888 2-6 2-2.113 0-4.325-.948-6-2-5.91 1.818-10 7.797-10 14h32c0-6.203-4.09-12.182-10-14z"/>
    </symbol>
    <symbol id="icon-book" viewBox="0 0 17 19">
      <title>icon-book icon</title>
      <path d="M9 5.998V19l8-6.04V0L9 5.998zM0 12.96L8 19V5.998L0 0v12.96z"/>
    </symbol>
    <symbol id="icon-bubble_icon" viewBox="0 0 12 11">
      <title>icon-bubble_icon icon</title>
      <path d="M2 8v3l4-3h4c1.104 0 2-.896 2-2V2c0-1.104-.896-2-2-2H2C.896 0 0 .896 0 2v4c0 1.104.896 2 2 2z"/>
    </symbol>
    <symbol id="icon-bulb" viewBox="0 0 14 20">
      <title>icon-bulb icon</title>
      <path fill-rule="evenodd" d="M10 13.317V15H4v-1.683C1.637 12.193 0 9.79 0 7c0-3.866 3.134-7 7-7s7 3.134 7 7c0 2.79-1.638 5.193-4 6.317zM7 2C4.238 2 2 4.238 2 7h1c0-2.21 1.79-4 4-4V2zm3 15c0 .553-.447 1-1 1H5c-.553 0-1-.447-1-1v-1h6v1zm-1 3H5v-1h4v1z"/>
    </symbol>
    <symbol id="icon-chain" viewBox="0 0 18.175 9.195">
      <title>icon-chain icon</title>
      <circle cx="-112.503" cy="4.649" r="15"/><path d="M-103.884.258c-.607.27-1.265.455-1.952.535.7-.42 1.24-1.086 1.495-1.883-.66.395-1.383.674-2.157.825-.624-.655-1.507-1.07-2.485-1.07-1.876 0-3.4 1.522-3.4 3.398 0 .267.033.526.09.773-2.82-.143-5.327-1.495-7.002-3.55-.29.503-.46 1.087-.46 1.707 0 1.18.6 2.223 1.512 2.83-.558-.022-1.082-.17-1.54-.428v.045c0 1.647 1.17 3.02 2.726 3.335-.283.073-.586.12-.896.12-.22 0-.43-.025-.64-.066.435 1.353 1.69 2.332 3.175 2.36-1.163.91-2.624 1.455-4.22 1.455-.275 0-.543-.018-.812-.048 1.506.965 3.293 1.522 5.21 1.522 6.25 0 9.67-5.178 9.67-9.668 0-.146-.004-.293-.01-.437.664-.477 1.24-1.08 1.695-1.758z"/><path d="M-31.726 7.58c-.06.038-.12.062-.186.087-.054.02-.105.045-.162.056-.063.012-.125.01-.188.01-.062 0-.12 0-.18-.01-.058-.013-.112-.038-.17-.06-.062-.026-.12-.05-.176-.088-.018-.01-.038-.013-.056-.026l-7.16-5.477v7.61c0 .536.434.97.97.97h13.56c.535 0 .97-.434.97-.97v-7.51l-7.17 5.382c-.015.012-.035.014-.052.025zm7.22-7.582c0-.535-.433-.968-.97-.968h-13.56c-.534 0-.97.433-.97.968l7.75 5.975 7.75-5.975z" fill-rule="evenodd"/><path d="M8.685 5.908l.005-.005c-.002 0-.004.003-.005.005zm.962 3.06c-.05-.014-.1-.028-.15-.044.047.015.097.03.15.043zM6.577 6.34c.037.096.09.204.144.303h.005c-.053-.1-.1-.2-.146-.303zm.143.303c.055.1.107.19.14.245-.048-.08-.093-.162-.137-.245H6.72zm.176.303c-.007-.014-.017-.028-.026-.043l.026.043zM9.42 8.9c-.115-.035-.23-.076-.34-.122h-.002c.01.006.144.06.342.123zm.076.025l-.057-.018.055.018zM13.576 0H10.8c-.24 0-.477.02-.707.054-.05.008-.1.02-.148.028.853.49 1.555 1.212 2.017 2.082h1.76c1.344 0 2.434 1.09 2.434 2.434s-1.09 2.435-2.434 2.435h-3.04c-.606 0-1.16-.223-1.587-.59h-.002c-.09-.077-.163-.148-.222-.212-.126-.14-.183-.237-.183-.237-.277-.395-.44-.876-.44-1.394 0-.505.154-.973.417-1.36.007-.013.016-.023.023-.034-.318-.27-.73-.435-1.18-.435H6.58c-.243.56-.38 1.18-.38 1.83s.136 1.267.38 1.827c.044.103.093.203.145.303.044.08.09.163.137.243l.01.017.026.04c.513.82 1.275 1.466 2.183 1.832.113.045.227.087.343.123l.018.006.06.02c.05.014.1.03.15.04.368.096.753.147 1.15.147h2.777c2.54 0 4.598-2.06 4.598-4.598S16.117 0 13.577 0zM4.6 9.195h2.78c.238 0 .475-.02.705-.054.05-.006.1-.017.148-.026C7.38 8.624 6.68 7.9 6.217 7.03h-1.76C3.11 7.03 2.02 5.94 2.02 4.598s1.09-2.433 2.435-2.433h3.04c.606 0 1.16.223 1.587.59h.002c.09.075.162.146.22.21.13.14.187.24.187.24.277.395.44.875.44 1.394 0 .503-.154.97-.417 1.36l-.024.03c.32.27.73.436 1.18.436h.926c.243-.56.38-1.178.38-1.827 0-.65-.137-1.27-.38-1.83-.044-.102-.093-.202-.145-.302-.043-.083-.09-.165-.137-.244l-.01-.017c-.008-.015-.018-.028-.026-.042C10.764 1.345 10 .698 9.094.335 8.982.286 8.87.244 8.754.21l-.02-.006c-.02-.006-.04-.01-.06-.017-.05-.015-.1-.03-.148-.042C8.156.05 7.77 0 7.376 0H4.597C2.058 0 0 2.06 0 4.598s2.06 4.597 4.598 4.597zm5.052-.228h-.003.002zM9.42 8.9c.007.004.013.005.02.007-.007 0-.013-.003-.02-.006zm-.735-2.992s.058.1.186.24l.004-.003c-.067-.075-.13-.154-.188-.237zm-1.815.997l-.01-.015.01.015zm2.003-.76s-.002 0-.003.003c.06.064.13.135.222.21-.077-.067-.15-.137-.22-.212zm.22.213l.002-.003-.002.003z"/>
    </symbol>
    <symbol id="icon-check_box" viewBox="0 0 11 9">
      <title>icon-check_box icon</title>
      <path d="M4.252 9L11 2.25 8.75 0 4 4.754 2.25 3.006 0 5.256 3.744 9z"/>
    </symbol>
    <symbol id="icon-cherry" viewBox="0 0 22 19.561">
      <title>icon-cherry icon</title>
      <path d="M20.906 4.947c-.235-1.92-3.113-4.37-5.042-3.95-.29-.61-1.216-1.165-1.56-.95-.583.366-.78 1.19-1.28 1.588-.372.294-.916.46-1.32.704C8.71 4.152 7.21 6.062 5.997 9.605c-2.91-.513-5.777 1.88-5.975 4.15-.13 1.5.354 2.964 1.145 3.88 1.447 1.674 3.865 2.93 6.57.794.63-.5.974-1.043 1.455-1.808 1.54 1.676 5.777 1.05 6.922-.353 2.147-2.636.306-7.91-3.114-7.665-.298-2.695.182-4.705 1.6-6.075-.055.73.164 1.566.372 2.13.444 1.198 1.446 2.1 2.598 2.606 1.504.665 2.89.82 4.43.34-.927-.503-.982-1.743-1.094-2.66zm-19.41 10.66c-.275 0-.5-.67-.5-1.5 0-.828.225-1.5.5-1.5.277 0 .5.672.5 1.5 0 .83-.223 1.5-.5 1.5zm8.003-2c-.278 0-.5-.672-.5-1.5s.222-1.5.5-1.5c.274 0 .5.672.5 1.5s-.227 1.5-.5 1.5zm2.5-5c-1.896-.056-3.497.67-4 2-.43-.148-.98-.988-1-1 1.13-3.41 2.915-4.737 5.673-6.52-.75 1.467-1.043 3.075-.675 5.52z"/>
    </symbol>
    <symbol id="icon-community" viewBox="0 0 21 21">
      <title>icon-community icon</title>
      <path d="M11.97 3.997v1c.657.933 1.043 1.71 1.043 3.472 0 2.095-.386 2.784-1.044 3.526v1c.782-.54 1.125-.766 1.54-1.654.412-.89.432-1.79.432-2.885 0-.936-.045-1.965-.51-2.9-.466-.935-.784-1.214-1.464-1.56zM8.966 9.995c-.277 0-.514.096-.708.29-.195.193-.293.43-.293.707 0 .276.098.513.292.708.193.196.43.295.707.295.278 0 .514-.1.708-.295.194-.195.292-.432.292-.708 0-.277-.098-.514-.292-.708-.195-.193-.43-.29-.708-.29zm0-5c-.277 0-.514.095-.708.29-.196.194-.293.43-.293.706s.098.517.292.713c.193.195.43.292.707.292.278 0 .514-.097.708-.292.194-.196.292-.434.292-.71s-.098-.513-.292-.707c-.195-.195-.43-.29-.708-.29zM10.47 0C4.67 0 0 3.93 0 8.505c0 3.36 2.326 6.193 5.97 7.494v5l3-4c.312.02 1.147-.023 1.468-.023C16.236 16.977 21 13.05 21 8.474S16.268 0 10.47 0zm0 14.983c-4.69 0-8.492-2.906-8.492-6.494S5.78 1.99 10.468 1.99c4.69 0 8.49 2.908 8.49 6.496s-3.8 6.493-8.49 6.493z"/>
    </symbol>
    <symbol id="icon-disability" viewBox="0 0 34 38">
      <title>icon-disability icon</title>
      <path d="M12.504 35C7.254 35 3 30.747 3 25.5c0-3.618 2.025-6.763 5.003-8.367V13.85C3.323 15.655 0 20.184 0 25.5 0 32.403 5.598 38 12.504 38c4.708 0 8.805-2.604 10.938-6.447l-1.875-3.19C20.354 32.208 16.755 35 12.504 35zm20.674-6.012l-4.536 1.225-5.634-9.52V20h-.41l-.006-.01-.014.01h-9.573v-3h8.003v-3h-8.003V6.65c1.18-.563 2-1.757 2-3.15 0-1.934-1.567-3.5-3.5-3.5C9.57 0 8.002 1.566 8.002 3.5c0 1.394.82 2.587 2 3.15V23H20.91l5.458 9.223.476 1.79.502-.137.078.132.49-.285L34 32.08l-.822-3.092z"/>
    </symbol>
    <symbol id="icon-eaquals" viewBox="0 0 12 6">
      <title>icon-eaquals icon</title>
      <path d="M0 0h12v2H0zm0 4h12v2H0z"/>
    </symbol>
    <symbol id="icon-earth_20x20" viewBox="15.5 44.5 20 20">
      <title>icon-earth_20x20 icon</title>
      <path d="M25.5 44.5c-5.523 0-10 4.477-10 10 0 5.522 4.477 10 10 10s10-4.478 10-10c0-5.523-4.477-10-10-10zm-8 10c0-1.46.397-2.822 1.08-4h1.92l3-1v-2.738c.64-.165 1.308-.262 2-.262.374 0 .738.035 1.1.084l.9 1.916h-3v2l1.125 1H27.5l1-1v-1l2 1v2h2.738c.165.64.262 1.31.262 2s-.097 1.36-.262 2H31.7l-1.2-3h-3v-1h-3l-3 3 2 3h2l1 2v1l.433.865c-.466.084-.943.135-1.433.135-4.418 0-8-3.582-8-8z"/>
    </symbol>
    <symbol id="icon-edit" viewBox="0 0 22.002 22.002">
      <title>icon-edit icon</title>
      <path fill-rule="evenodd" d="M17.863 0L1.996 15.867l4.14 4.14 15.866-15.87L17.862 0zM0 22.002l5-1.25L1.25 17 0 22z"/>
    </symbol>
    <symbol id="icon-error" viewBox="0 0 16 16">
      <title>icon-error icon</title>
      <path d="M8 0C3.582 0 0 3.58 0 8c0 4.418 3.582 8 8 8 4.42 0 8-3.582 8-8 0-4.42-3.58-8-8-8zm1 12.995H7v-2h2v2zm0-4H7V2.992h2v6z"/>
    </symbol>
    <symbol id="icon-facebook" viewBox="0 0 9 17">
      <title>icon-facebook icon</title>
      <path d="M2 4v2H0v2h2v9h3V8h2l1-2H5V5c0-1.727 1-2 2-2h2V0H6C1.948 0 2 4 2 4z"/>
    </symbol>
    <symbol id="icon-flag" viewBox="0 0 9 12">
      <title>icon-flag icon</title>
      <path d="M1 5.762C2.052 5.562 3.728 5.4 5 6c2.052.97 4 0 4 0V0S6.99 1.895 5 1C3.675.404 2.033.163 1 .065V0H0v12h1V5.762z"/>
    </symbol>
    <symbol id="icon-fork" viewBox="0 0 13 40">
      <title>icon-fork icon</title>
      <path d="M10 .528v6.464H9V.222C8.377.086 7.704.022 7 0v6.992H6V0c-.704.02-1.377.086-2 .223v6.77H3V.528c-1.802.715-3 2.28-3 5.463 0 4.338 2.213 7.955 5.16 8.81L4 38c0 1.104 1.12 2 2.5 2S9 39.104 9 38L7.84 14.8c2.946-.855 5.16-4.473 5.16-8.81 0-3.183-1.198-4.747-3-5.462z"/>
    </symbol>
    <symbol id="icon-girl_user" viewBox="0 0 12 12">
      <title>icon-girl_user icon</title>
      <path d="M11 10L7 8H5l-4 2s-1 .393-1 1c0 .397.603 1 1 1h10c.397 0 1-.602 1-1 0-.597-1-1-1-1zm-1-4c-.508-.154-.932-1.32-1-2V3c0-1.192-1.41-3-3-3S3 1.808 3 3v1c-.062.674-.483 1.843-1 2 .644.756 2.236 1 4 1s3.356-.244 4-1z"/>
    </symbol>
    <symbol id="icon-grid_view" viewBox="0 0 23 23">
      <title>icon-grid_view icon</title>
      <path d="M22 8h-5c-.552 0-1 .447-1 1v5c0 .553.448 1 1 1h5c.552 0 1-.447 1-1V9c0-.553-.448-1-1-1zm0 8h-5c-.552 0-1 .447-1 1v5c0 .553.448 1 1 1h5c.552 0 1-.447 1-1v-5c0-.553-.448-1-1-1zm0-16h-5c-.552 0-1 .447-1 1v5c0 .552.448 1 1 1h5c.552 0 1-.448 1-1V1c0-.553-.448-1-1-1zM6 0H1C.448 0 0 .447 0 1v5c0 .552.448 1 1 1h5c.552 0 1-.448 1-1V1c0-.553-.448-1-1-1zm0 16H1c-.552 0-1 .447-1 1v5c0 .553.448 1 1 1h5c.552 0 1-.447 1-1v-5c0-.553-.448-1-1-1zm0-8H1c-.552 0-1 .447-1 1v5c0 .553.448 1 1 1h5c.552 0 1-.447 1-1V9c0-.553-.448-1-1-1zm8 8H9c-.552 0-1 .447-1 1v5c0 .553.448 1 1 1h5c.552 0 1-.447 1-1v-5c0-.553-.448-1-1-1zm0-16H9c-.552 0-1 .447-1 1v5c0 .552.448 1 1 1h5c.552 0 1-.448 1-1V1c0-.553-.448-1-1-1zm0 8H9c-.552 0-1 .447-1 1v5c0 .553.448 1 1 1h5c.552 0 1-.447 1-1V9c0-.553-.448-1-1-1z"/>
    </symbol>
    <symbol id="icon-hamburger-menu" viewBox="0 0 21 21">
      <title>icon-hamburger-menu icon</title>
      <path d="M0 3v2h21V3H0zm0 6v2h21V9H0zm0 6v2h21v-2H0z" fill-rule="evenodd"/>
    </symbol>
    <symbol id="icon-heart" viewBox="0 0 36 35">
      <title>icon-heart icon</title>
      <path d="M26.538 0c-1.1 0-7.637.468-8.55 5.994C17.07.468 10.562 0 9.462 0 3.12.772 1.037 4.975.12 9.395-1.71 21.185 18.074 35 18.074 35S37.712 21.186 35.88 9.395c-.916-4.42-3-8.623-9.342-9.395z"/>
    </symbol>
    <symbol id="icon-heart_signal" viewBox="0 0 36 35">
      <title>icon-heart_signal icon</title>
      <path d="M35.865 9.287C34.952 4.85 33.252.777 26.922 0c-1.1 0-7.983.03-8.895 5.58 0 .104-.012.104-.012 0C17.103.03 10.96 0 9.865 0 3.533.776 1.092 4.85.175 9.287c-.338 2.195-.222 4.557.66 6.79h6.02l4.014-7.034c.32-.614 1.022-1.44 1.704-1.345.682.093 1.15.666 1.304 1.345l2.005 11.053 2.033-3.055c.29-.527 1.384-.963 1.98-.963H34.95c.928-2.3 1.265-4.526.915-6.79zM17.892 24.114c-.97 1.656-1.523 1.97-2.087 1.994-.66-.114-1.45-.504-1.926-1.994l-2.01-10.047-2.007 4.02c-.282.545-1.397 1.004-2.007 1.004H2.84C7.88 27.567 18.097 35 18.097 35s9.81-7.526 14.847-15.91H19.898l-2.006 5.024z"/>
    </symbol>
    <symbol id="icon-instagram" viewBox="0 0 16 16">
      <title>icon-instagram icon</title>
      <path d="M15 0H1C.447 0 0 .447 0 1v14c0 .552.447 1 1 1h14c.552 0 1-.448 1-1V1c0-.553-.448-1-1-1zM8 6c1.104 0 2 .896 2 2s-.896 2-2 2-2-.896-2-2 .896-2 2-2zm6 8H2V7h2.142C4.06 7.32 4 7.652 4 8c0 2.21 1.79 4 4 4s4-1.79 4-4c0-.348-.06-.68-.142-1H14v7zm0-10c0 .552-.448 1-1 1h-1c-.553 0-1-.448-1-1V3c0-.553.447-1 1-1h1c.552 0 1 .447 1 1v1z"/>
    </symbol>
    <symbol id="icon-large_botles" viewBox="0 0 20 39">
      <title>icon-large_botles icon</title>
      <path d="M14 10h3V6h1V5h-1V4h-3v1h-1v1h1v4zM4 7h4V3h1V1H8V0H4v1H3v2h1v4zm16 18v-3s-3-5-3-8v-3h-3v3c0 1.846-1.135 3.337-2.01 4.895C11.9 15.93 8 12.965 8 10V8H4v2c0 3-4 6.063-4 9v3h11v1H0v11h11v1h9v-9h-9v-1h9zM0 36c0 1.104.896 2 2 2h8c.415 0 .8-.127 1.12-.343.273.78 1.007 1.343 1.88 1.343h5c1.104 0 2-.896 2-2v-1h-9v-1H0v1z"/>
    </symbol>
    <symbol id="icon-large_calendar" viewBox="0 0 19 19">
      <title>icon-large_calendar icon</title>
      <path d="M10 13h3v-3h-3v3zm0 4h3v-3h-3v3zm-4-4h3v-3H6v3zm0 4h3v-3H6v3zm8 0h3v-3h-3v3zm-9-7H2v3h3v-3zm12-4H2v3h15V6zM5 14H2v3h3v-3zM17 2h-1V0h-3v2H6V0H3v2H2C.896 2 0 2.896 0 4v13c0 1.104.896 2 2 2h15c1.104 0 2-.896 2-2V4c0-1.104-.896-2-2-2zm-3-1h1v3h-1V1zM4 1h1v3H4V1zm14 17H1V5h17v13zm-4-5h3v-3h-3v3z"/>
    </symbol>
    <symbol id="icon-large_clock" viewBox="0 0 20 20">
      <title>icon-large_clock icon</title>
      <path d="M10 0C4.486 0 0 4.486 0 10s4.486 10 10 10c5.513 0 10-4.486 10-10S15.513 0 10 0zm5.002 11.006h-6v-7h2v5h4v2z"/>
    </symbol>
    <symbol id="icon-large_pin" viewBox="0 0 14 20">
      <title>icon-large_pin icon</title>
      <path d="M6.994 0C2.994 0 0 2.98 0 6.995 0 11.01 7 20 7 20s7.027-8.99 7-13.005C13.972 2.98 10.994 0 6.994 0zM6.99 9.98c-1.657 0-3-1.338-3-2.99s1.342-2.992 3-2.992 2.998 1.34 2.998 2.992-1.343 2.99-3 2.99z"/>
    </symbol>
    <symbol id="icon-large_star" viewBox="0 0 19 17">
      <title>icon-large_star icon</title>
      <path d="M0 6.002l6 4L4 17l5.5-4.01L15 17l-2-6.998 6-4h-7L9.5 0 7 6.002z"/>
    </symbol>
    <symbol id="icon-large_tickets" viewBox="0 0 20 15">
      <title>icon-large_tickets icon</title>
      <path d="M20 4V0H4v4h1v1H0v4h1v2H0v4h16v-4h-1v-1h5V6h-1V4h1zm-6 4.277c-.595.347-1 .985-1 1.723s.405 1.376 1 1.723V13H2v-1.277c.595-.347 1-.985 1-1.723s-.405-1.376-1-1.723V7h12v1.277zm4-5c-.595.347-1 .985-1 1.723s.405 1.376 1 1.723V8h-2V5H7c0-.738-.405-1.376-1-1.723V2h12v1.277z"/>
    </symbol>
    <symbol id="icon-leaf" viewBox="0 0 38 35">
      <title>icon-leaf icon</title>
      <path d="M17.604 16.8l-7.71-7.954L33 27c.527-1.386.892-3.634.432-6.152-2.927-16.02-17.047-18.63-20.388-19.2C11.01 1.3.646.02 0 0c.117.65 2.797 11.104 3.44 13.11C4.5 16.4 9.086 30.48 25 31c2.12.07 3.82-.415 5.027-.955L37 35l1-2s-2.298-1.224-4.588-2.946c-2.29-1.722-15.804-13.25-15.808-13.254z"/>
    </symbol>
    <symbol id="icon-list_view" viewBox="0 0 25 21">
      <title>icon-list_view icon</title>
      <path d="M24 9H8c-.552 0-1 .447-1 1v1c0 .552.448 1 1 1h16c.552 0 1-.448 1-1v-1c0-.553-.448-1-1-1zm0-8H8c-.552 0-1 .447-1 1v1c0 .553.448 1 1 1h16c.552 0 1-.447 1-1V2c0-.553-.448-1-1-1zM2.5 0C1.12 0 0 1.12 0 2.5S1.12 5 2.5 5 5 3.88 5 2.5 3.88 0 2.5 0zm0 8C1.12 8 0 9.12 0 10.5S1.12 13 2.5 13 5 11.88 5 10.5 3.88 8 2.5 8zm0 8C1.12 16 0 17.12 0 18.5S1.12 21 2.5 21 5 19.88 5 18.5 3.88 16 2.5 16zM24 17H8c-.552 0-1 .447-1 1v1c0 .552.448 1 1 1h16c.552 0 1-.448 1-1v-1c0-.553-.448-1-1-1z"/>
    </symbol>
    <symbol id="icon-mail-large" viewBox="0 0 15.498 11.623">
      <title>icon-mail-large icon</title>
      <path d="M8.277 8.55c-.058.038-.12.062-.185.087-.054.02-.106.045-.162.055-.063.012-.125.01-.188.01-.062 0-.12 0-.18-.01-.058-.012-.113-.038-.17-.06-.062-.026-.12-.05-.176-.087-.018-.01-.038-.013-.056-.026L0 3.042v7.61c0 .536.434.97.97.97h13.56c.535 0 .97-.434.97-.97v-7.51l-7.17 5.38c-.017.014-.036.016-.053.027zm7.22-7.582c0-.535-.433-.968-.97-.968H.97C.435 0 0 .433 0 .968l7.748 5.975 7.75-5.975z" fill-rule="evenodd"/>
    </symbol>
    <symbol id="icon-mail" viewBox="0 0 15 12">
      <title>icon-mail icon</title>
      <path d="M13.5 0h-12C.672 0 0 .672 0 1.5v9c0 .828.672 1.5 1.5 1.5h12c.828 0 1.5-.672 1.5-1.5v-9c0-.828-.672-1.5-1.5-1.5zm0 3l-6 3.75L1.5 3V1.5l6 3.75 6-3.75V3z"/>
    </symbol>
    <symbol id="icon-mail_footer" viewBox="0 0 14.846 11.833">
      <title>icon-mail_footer icon</title>
      <path d="M13.854 0H.99C.442 0 0 .444 0 .988v9.857c0 .547.443.988.99.988h12.864c.547 0 .99-.44.99-.988V.988C14.846.444 14.4 0 13.854 0zM7.422 6.396L1.872 1.32h11.102L7.422 6.396zm-1.51-.486l-4.594 4.203V1.707L5.91 5.91zm.49.447l1.02.934 1.02-.932 4.544 4.156H1.856l4.546-4.156zm2.53-.447l4.596-4.203v8.406L8.933 5.91z"/>
    </symbol>
    <symbol id="icon-map_view" viewBox="0 0 22 27">
      <title>icon-map_view icon</title>
      <path d="M11.878 5C10.988 9.205 5 16 5 16s-2.1-2.415-4-5.25V27h3L15 5h-3.122zM19 5l-5 12 8 4V5h-3zM8 27h14v-2l-10-6-4 8zm2-22c-.03-2.896-2.174-5-5-5S0 2.104 0 5c.01 2.935 5 9 5 9s5.03-6.04 5-9zm-6.996-.013c0-1.104.894-2 1.997-2 1.105 0 2 .896 2 2s-.895 2-1.998 2-1.996-.895-1.996-2z"/>
    </symbol>
    <symbol id="icon-medium_botles" viewBox="0 0 13 25">
      <title>icon-medium_botles icon</title>
      <path d="M12 6H9v4h3V6zm1 11v-2s-.01-.204-.714-1.5c0 0-.003.267-.286-1.5v-1H9v1c-.28 1.767-.286 1.5-.286 1.5C8.01 14.796 8 15 8 15v1H0v5h8v1h5v-4H8v-1h5zM6 0H2v5h4V0zm1 10s-.604-.645-1-3V6H2v1c-.394 2.355-1 3-1 3-.986 1.728-1 3-1 3v2h8v-2s-.013-1.272-1-3zM0 24h8v1h5v-2H8v-1H0v2z"/>
    </symbol>
    <symbol id="icon-medium_calendar" viewBox="0 0 15 16.001">
      <title>icon-medium_calendar icon</title>
      <path d="M12.75 9h-1.5c-.14 0-.25.112-.25.25v1.5c0 .14.112.25.25.25h1.5c.138 0 .25-.11.25-.25v-1.5c0-.138-.112-.25-.25-.25zm0 3h-1.5c-.138 0-.25.112-.25.25v1.5c0 .14.11.25.25.25h1.5c.138 0 .25-.11.25-.25v-1.5c0-.138-.112-.25-.25-.25zM15 3c0-.552-.448-1-1-1h-1V0h-3v2H5V0H2v2H1c-.552 0-1 .448-1 1v12c0 .553.448 1 1 1h13c.552 0 1-.447 1-1V3zm-4-1.75c0-.14.112-.25.25-.25h.5c.14 0 .25.11.25.25v1.5c0 .138-.112.25-.25.25h-.5c-.138 0-.25-.112-.25-.25v-1.5zm-8 0c0-.14.113-.25.25-.25h.5c.14 0 .25.11.25.25v1.5c0 .138-.11.25-.25.25h-.5C3.114 3 3 2.888 3 2.75v-1.5zM14 15H1V5h13v10zM9.75 9h-1.5c-.138 0-.25.112-.25.25v1.5c0 .14.112.25.25.25h1.5c.138 0 .25-.11.25-.25v-1.5c0-.138-.112-.25-.25-.25zm-7.5-1h10.5c.138 0 .25-.11.25-.25v-1.5c0-.138-.112-.25-.25-.25H2.25c-.138 0-.25.112-.25.25v1.5c0 .14.112.25.25.25zm7.5 4h-1.5c-.138 0-.25.112-.25.25v1.5c0 .14.112.25.25.25h1.5c.138 0 .25-.11.25-.25v-1.5c0-.138-.112-.25-.25-.25zm-7.5 2h1.5c.14 0 .25-.11.25-.25v-1.5c0-.138-.112-.25-.25-.25h-1.5c-.138 0-.25.112-.25.25v1.5c0 .14.112.25.25.25zm0-3h1.5c.14 0 .25-.11.25-.25v-1.5C4 9.112 3.888 9 3.75 9h-1.5c-.138 0-.25.112-.25.25v1.5c0 .14.112.25.25.25zm4.5-2h-1.5c-.138 0-.25.112-.25.25v1.5c0 .14.112.25.25.25h1.5c.138 0 .25-.11.25-.25v-1.5C7 9.112 6.888 9 6.75 9zm0 3h-1.5c-.138 0-.25.112-.25.25v1.5c0 .14.112.25.25.25h1.5c.138 0 .25-.11.25-.25v-1.5c0-.138-.112-.25-.25-.25z"/>
    </symbol>
    <symbol id="icon-medium_pin" viewBox="0 0 8 12">
      <title>icon-medium_pin icon</title>
      <path d="M4 0C2.008 0 0 1.91 0 4s4 8 4 8 4-5.91 4-8-2.008-4-4-4zm-.006 6.013c-1.1 0-1.99-.898-1.99-2.007C2.004 2.898 2.896 2 3.994 2c1.1 0 1.99.898 1.99 2.006 0 1.108-.89 2.007-1.99 2.007z"/>
    </symbol>
    <symbol id="icon-mediuml_clock" viewBox="0 0 18 18">
      <title>icon-mediuml_clock icon</title>
      <path d="M9 0C4.038 0 0 4.038 0 9c0 4.963 4.038 9 9 9s9-4.037 9-9c0-4.962-4.038-9-9-9zm0 16c-3.86 0-7-3.14-7-7s3.14-7 7-7 7 3.14 7 7-3.14 7-7 7zm1.137-12.002h-2v6h5v-2h-3v-4z"/>
    </symbol>
    <symbol id="icon-megaphone" viewBox="0 0 28.958 15.021">
      <title>icon-megaphone icon</title>
      <path d="M17.584.01c-1.37.185-2.12 2.995-1.68 6.28.442 3.284 1.91 5.797 3.277 5.613 1.37-.184 2.12-2.995 1.68-6.28S18.954-.173 17.585.01zm5.365 7.91l5.48 3.097.527-.894-5.48-3.097-.53.894zm.003-1.9h6v-1h-6v1zm6.004-5.1L28.43.026l-5.48 3.097.527.894L28.957.92zM15.207.59L3.333 3.825c-.4.963-.54 2.5-.312 4.195.23 1.693.77 3.14 1.408 3.964l2.526-.003v2.043c0 .553.448 1 1 1h3c.552 0 1-.447 1-1v-2.045l4.78-.005c-.843-1.354-1.52-3.314-1.82-5.55-.3-2.234-.164-4.304.293-5.832zm-4.253 13.43h-3v-2.04l3-.003v2.044zM2.02 4.184C.65 4.678-.216 6.446.048 8.42c.265 1.97 1.566 3.448 3.02 3.564-.472-1.068-.843-2.384-1.037-3.832-.194-1.446-.183-2.814-.01-3.97z"/>
    </symbol>
    <symbol id="icon-megaphone2" viewBox="0 0 37.015 35.007">
      <title>icon-megaphone2 icon</title>
      <path fill-rule="evenodd" d="M33.007 2.003h-1c-6.223 8.752-18 8-18 8-1.516 0-2 1-2 1v10c0 1.173 2 1 2 1 14.36 0 18 9 18 9h1v-29zm-25 8H3.91S0 10.157 0 13.673v4.845S.18 23 4.007 23c0 0 1 .516 1 2v9s-.14 1.005 1.375 1.005h2.392s1.233.012 1.233-1.004V11s-.404-1-2-1zM35.503 0c-.834 0-1.513.57-1.513 1.27v30.468c0 .7.68 1.27 1.513 1.27.836 0 1.512-.568 1.512-1.27V1.27c0-.7-.676-1.27-1.512-1.27z"/>
    </symbol>
    <symbol id="icon-note" viewBox="0 0 29 35">
      <title>icon-note icon</title>
      <path fill-rule="evenodd" d="M27 0H2C.896 0 0 .896 0 2v31c0 1.104.896 2 2 2h25c1.104 0 2-.896 2-2V2c0-1.104-.896-2-2-2zM5 8h12v2H5V8zm19 22H5v-2h19v2zm0-5H5v-2h19v2zm0-5H5v-2h19v2zm0-5H5v-2h19v2z"/>
    </symbol>
    <symbol id="icon-photo" viewBox="0 0 21 19">
      <title>icon-photo icon</title>
      <path fill-rule="evenodd" d="M18.9 19H2.1C.94 19 0 18.055 0 16.89V4.22c0-1.166.94-2.11 2.1-2.11h2.816L6.35 0h8.3l1.434 2.11H18.9c1.16 0 2.1.946 2.1 2.112V16.89c0 1.165-.94 2.11-2.1 2.11zM8.5 4.996c-3.038 0-5.5 2.46-5.5 5.496 0 3.036 2.462 5.497 5.5 5.497 3.037 0 5.5-2.463 5.5-5.5 0-3.033-2.463-5.495-5.5-5.495zm9 .004c-.828 0-1.5.67-1.5 1.5 0 .828.672 1.5 1.5 1.5S19 7.328 19 6.5c0-.83-.672-1.5-1.5-1.5zm-9 9c-1.926 0-3.488-1.57-3.488-3.507S6.574 6.987 8.5 6.987s3.488 1.57 3.488 3.506S10.426 14 8.5 14z"/>
    </symbol>
    <symbol id="icon-pinterest" viewBox="0 0 16 20">
      <title>icon-pinterest icon</title>
      <path d="M9.595 14.48C13.41 14.48 16 11.11 16 6.59 16 3.18 13.018 0 8.485 0 2.845 0 0 3.92 0 7.188c0 1.98.77 3.74 2.43 4.398.272.107.516.003.597-.29.055-.2.182-.71.24-.924.08-.288.05-.39-.17-.64-.478-.55-.782-1.256-.782-2.258 0-2.91 2.243-5.514 5.844-5.514 3.186 0 4.94 1.89 4.94 4.412 0 3.32-1.516 6.12-3.767 6.12-1.24 0-2.17-.994-1.87-2.217.35-1.46 1.047-3.036 1.047-4.083 0-.943-.522-1.732-1.603-1.732-1.27 0-2.288 1.274-2.288 2.982 0 1.088.376 1.818.376 1.818s-1.298 5.343-1.53 6.273c-.21.877-.236 1.842-.203 2.644.15 1.106.17 1.786.28 1.82.115.034.6-.603 1.12-1.323.45-.692.943-1.576 1.194-2.463.148-.51.835-3.16.835-3.16.414.76 1.62 1.43 2.902 1.43z"/>
    </symbol>
    <symbol id="icon-plus" viewBox="0 0 12 12">
      <title>icon-plus icon</title>
      <path fill-rule="evenodd" d="M12 5H7V0H5v5H0v2h5v5h2V7H5h7V5z"/>
    </symbol>
    <symbol id="icon-question_mark" viewBox="0 0 5 9">
      <title>icon-question_mark icon</title>
      <path d="M-176.5 998c0-.553-.448-1-1-1h-5c-.552 0-1 .447-1 1v5c0 .553.448 1 1 1h5c.552 0 1-.447 1-1v-5zm-1 7h-5c-.552 0-1 .447-1 1v5c0 .553.448 1 1 1h5c.552 0 1-.447 1-1v-5c0-.553-.448-1-1-1zm-12-52h3v-3h-3v3zm0 4h3v-3h-3v3zm-4-4h3v-3h-3v3zm0 4h3v-3h-3v3zm8 0h3v-3h-3v3zm9 33c0-.553-.448-1-1-1h-5c-.552 0-1 .447-1 1v5c0 .552.448 1 1 1h5c.552 0 1-.448 1-1v-5zm-21-132h1v-1h-1v1zm5 132c0-.553-.448-1-1-1h-5c-.552 0-1 .447-1 1v5c0 .552.448 1 1 1h5c.552 0 1-.448 1-1v-5zm-5-130h1v-1h-1v1zm4 145h-5c-.552 0-1 .447-1 1v5c0 .553.448 1 1 1h5c.552 0 1-.447 1-1v-5c0-.553-.448-1-1-1zm1-7c0-.553-.448-1-1-1h-5c-.552 0-1 .447-1 1v5c0 .553.448 1 1 1h5c.552 0 1-.447 1-1v-5zm-1-138h1v-1h-1v1zm-2-2h1v-1h-1v1zm0 2h1v-1h-1v1zm10 145h-5c-.552 0-1 .447-1 1v5c0 .553.448 1 1 1h5c.552 0 1-.447 1-1v-5c0-.553-.448-1-1-1zm-9-55h-3v3h3v-3zm12-4h-15v3h15v-3zm-12 8h-3v3h3v-3zm8-14v2h-7v-2h-3v2h-1c-1.104 0-2 .896-2 2v13c0 1.104.896 2 2 2h15c1.104 0 2-.896 2-2v-13c0-1.104-.896-2-2-2h-1v-2h-3zm1 1h1v3h-1v-3zm-10 0h1v3h-1v-3zm14 4v13h-17v-13h17zm-4 8h3v-3h-3v3zm1 37c0-.553-.448-1-1-1h-5c-.552 0-1 .447-1 1v5c0 .552.448 1 1 1h5c.552 0 1-.448 1-1v-5zm0 8c0-.553-.448-1-1-1h-5c-.552 0-1 .447-1 1v5c0 .553.448 1 1 1h5c.552 0 1-.447 1-1v-5zm519 62h3v-4h1v-1h-1v-1h-3v1h-1v1h1v4zm-336-115h3v-4h-3v4zm3 1h-3v1c-.28 1.767-.286 1.5-.286 1.5-.704 1.296-.714 1.5-.714 1.5v1h-8v5h8v1h5v-4h-5v-1h5v-2s-.01-.204-.714-1.5c0 0-.003.267-.286-1.5v-1zm-6-11h-4v5h4v-5zm1 10s-.604-.645-1-3v-1h-4v1c-.394 2.355-1 3-1 3-.986 1.728-1 3-1 3v2h8v-2s-.013-1.272-1-3zm-6-83s2.942-3.853 3-4c-.326-.765 3 4 3 4h3l-4-5.563 4-5.438h-3s-2.9 3.727-3 4c-.126-.273-3-4-3-4h-3l4 5.404-4 5.594h3zm-59-3v3l4-3h4c1.104 0 2-.896 2-2v-4c0-1.104-.896-2-2-2h-8c-1.104 0-2 .896-2 2v4c0 1.104.896 2 2 2zm-102-5c0-2.09-2.008-4-4-4s-4 1.91-4 4 4 8 4 8 4-5.91 4-8zm-5.996.006c0-1.107.89-2.006 1.99-2.006s1.99.898 1.99 2.006c0 1.108-.89 2.007-1.99 2.007-1.098 0-1.99-.9-1.99-2.007zM-28.4 860c-.056.158-.1.322-.1.5 0 .828.67 1.5 1.5 1.5s1.5-.672 1.5-1.5c0-.178-.044-.342-.1-.5h3.05c.023-.165.05-.33.05-.5 0-1.394-.82-2.588-2-3.15v-2.85c0-1.38-1.12-2.5-2.5-2.5s-2.5 1.12-2.5 2.5v2.85c-1.18.563-2 1.757-2 3.15 0 .17.026.335.05.5h3.05zm17.9 99h8v1h5v-2h-5v-1h-8v2zm-104-60l6 4-2 7 5.5-4.01 5.5 4.01-2-7 6-4h-7l-2.5-6.004-2.5 6.004h-7zm439 158h4v-4h1v-2h-1v-1h-4v1h-1v2h1v4zm-140.003 15.005c6.07 0 10.993-4.924 10.993-10.998s-4.922-10.998-10.993-10.998c-6.07 0-10.992 4.922-10.992 10.996s4.92 10.998 10.992 10.998zm103.257-389.013l6.738-6.738-2.246-2.246-4.746 4.746-1.746-1.746-2.246 2.246 3.738 3.738h.508zm-165.026 270.89c1.368-.184 2.12-2.995 1.68-6.28s-1.91-5.797-3.277-5.613c-1.367.183-2.12 2.993-1.677 6.277.44 3.285 1.907 5.797 3.276 5.614zM-193.5 858h1v-1h-1v1zm326.004 94.102l-5.48-3.097-.53.894 5.483 3.095.527-.894zM126.5 948h6v-1h-6v1zm6.004-5.102l-.527-.894-5.482 3.097.528.896 5.48-3.097zM-74.5 959s7.027-8.987 7-13c-.028-4.013-3.006-6.993-7.006-6.993S-81.5 941.987-81.5 946s7 13 7 13zm-.01-15.998c1.655 0 2.998 1.34 2.998 2.992s-1.342 2.99-3 2.99-2.998-1.338-2.998-2.99 1.343-2.992 3-2.992zM-129.5 900s-.013-1.272-1-3c0 0-.604-.645-1-3h-3c-.394 2.355-1 3-1 3-.986 1.728-1 3-1 3v2h7v-2zm0 3h-7v4h7v-4zm-2-15h-3v5h3v-5zm2 20h-7v2h7v-2zm-3 91h-16c-.552 0-1 .447-1 1v1c0 .552.448 1 1 1h16c.552 0 1-.448 1-1v-1c0-.553-.448-1-1-1zm-27-143.238c1.052-.198 2.728-.362 4 .238 2.052.97 4 0 4 0v-6s-2.01 1.895-4 1c-1.325-.596-2.967-.837-4-.935V850h-1v12h1v-6.238zm-1.002 54.225c4.968 0 9.01-4.034 9.01-8.993 0-4.958-4.042-8.992-9.01-8.992s-9.01 4.034-9.01 8.992c0 4.96 4.042 8.993 9.01 8.993zm0-15.987c3.864 0 7.008 3.137 7.008 6.994s-3.144 6.994-7.008 6.994c-3.865 0-7.007-3.137-7.007-6.994s3.144-6.994 7.01-6.994zm4.002 6h-3v-4h-2v6h5v-2zm41 43.5v3c0 2.485 2.015 4.5 4.5 4.5s4.5-2.015 4.5-4.5v-3c0-2.485-2.015-4.5-4.5-4.5s-4.5 2.015-4.5 4.5zm4-81.49c3.32 0 6.01-2.69 6.01-6.01s-2.69-6.01-6.01-6.01-6.01 2.69-6.01 6.01 2.69 6.01 6.01 6.01zm-1-10.01h2v3h2v2h-4v-5zm-19 140c0-.553-.448-1-1-1h-16c-.552 0-1 .447-1 1v1c0 .553.448 1 1 1h16c.552 0 1-.447 1-1v-1zm34-2h-3.122c-.89 4.205-6.878 11-6.878 11s-2.1-2.415-4-5.25V1012h3l11-22zm-5 0c-.03-2.896-2.174-5-5-5s-5 2.104-5 5c.01 2.935 5 9 5 9s5.03-6.04 5-9zm-6.996-.013c0-1.104.894-2 1.997-2 1.105 0 2 .896 2 2s-.895 2-1.998 2-1.996-.895-1.996-2zM-130.5 859h-1v-1h4v-3h-1v-1h1v-3h-11v3h1v1h-4v3h1v1h-1v3h11v-3zm-7-7h9v1h-1v3h1v1h-2v-2h-6v-2h-1v-1zm6 9h-9v-1h1v-3h-1v-1h9v1h-1v3h1v1zm12 98h17c.656 0 1-.344 1-1v-2c0-.983-1-1-1-1l-7-2h-3l-7 2s-1-.002-1 1v2c0 .656.344 1 1 1zm50.957 52.984l10.032-11-10.034-11-1.958 1.78 8.407 9.22-8.408 9.22 1.957 1.78zM-191.5 860h1v-1h-1v1zm357 88c-.298-2.695.182-4.704 1.6-6.074-.055.73.164 1.565.372 2.128.444 1.198 1.446 2.1 2.598 2.606 1.505.663 2.89.818 4.43.34-.926-.505-.98-1.743-1.093-2.66-.235-1.92-3.113-4.368-5.04-3.95-.29-.608-1.217-1.164-1.56-.95-.584.367-.78 1.192-1.28 1.59-.373.293-.917.458-1.322.703-2.99 1.815-4.49 3.726-5.705 7.268-2.91-.512-5.778 1.88-5.976 4.15-.13 1.5.354 2.964 1.145 3.88 1.445 1.674 3.862 2.93 6.567.794.63-.5.974-1.043 1.455-1.808 1.54 1.676 5.776 1.05 6.92-.353 2.148-2.633.306-7.91-3.113-7.662zm-11.5 7c-.276 0-.5-.672-.5-1.5 0-.83.224-1.5.5-1.5s.5.67.5 1.5c0 .828-.224 1.5-.5 1.5zm8-2c-.276 0-.5-.672-.5-1.5s.224-1.5.5-1.5.5.672.5 1.5-.224 1.5-.5 1.5zm2.5-5c-1.894-.056-3.494.67-4 2-.427-.148-.978-.988-1-1 1.132-3.41 2.916-4.736 5.675-6.518-.75 1.465-1.042 3.073-.675 5.518zm-49 8v-2.045l4.78-.005c-.843-1.354-1.52-3.314-1.82-5.55-.3-2.234-.165-4.304.292-5.832l-11.874 3.235c-.398.963-.54 2.5-.312 4.194.228 1.693.77 3.14 1.407 3.964h2.526V956c0 .553.446 1 1 1h3c.55 0 1-.447 1-1zm-4-2.04l3-.004V956h-3v-2.04zm89 133.04c0 .126.003-.125 0 0zm-73.5-3c-5.247 0-9.5-4.253-9.5-9.5 0-3.618 2.023-6.763 5-8.367v-3.284c-4.677 1.806-8 6.334-8 11.65 0 6.902 5.596 12.5 12.5 12.5 4.707 0 8.802-2.605 10.934-6.448l-1.874-3.19c-1.214 3.846-4.81 6.637-9.06 6.637zm111.5-29c3.33 0 4.48 1.057 3 4l-11 21-3-21c-.37-2.89 1.67-4 5-4v-1h-12v1c3.014 0 3.47 1.2 4 5l4 27h1l14-27c1.903-3.906 2.092-5 5-5v-1h-10v1zm55.5 548h-12c-.828 0-1.5.672-1.5 1.5v9c0 .828.672 1.5 1.5 1.5h12c.828 0 1.5-.672 1.5-1.5v-9c0-.828-.672-1.5-1.5-1.5zm0 3l-6 3.75-6-3.75v-1.5l6 3.75 6-3.75v1.5zM43.242 1080.95c3.958 0 7.72-2.416 8.258-5.95h-16c.537 3.534 3.783 5.95 7.742 5.95zM168.5 1087c-.004-.125 0 .126 0 0zm-94-142v1c.658.933 1.044 1.71 1.044 3.472 0 2.097-.386 2.786-1.044 3.528v1c.784-.54 1.127-.766 1.54-1.654.414-.89.434-1.79.434-2.885 0-.934-.045-1.963-.51-2.9-.465-.933-.783-1.212-1.464-1.56zm-3.002 5.99c-.28 0-.518.098-.713.293-.196.195-.294.433-.294.712 0 .278.1.517.296.713.195.197.434.296.713.296.28 0 .516-.1.712-.296.196-.196.295-.435.295-.713 0-.28-.1-.517-.294-.712-.195-.195-.432-.292-.712-.292zm0-5c-.28 0-.518.098-.713.294-.196.194-.294.432-.294.71 0 .28.1.518.296.715.195.194.434.292.713.292.28 0 .516-.098.712-.294.196-.198.295-.437.295-.716 0-.278-.1-.516-.294-.71-.195-.196-.432-.293-.712-.293zm-28.006 105.02c-9.94.004-17.996 8.056-17.997 17.988 0 9.936 8.058 17.986 17.997 17.987 9.94 0 17.997-8.052 17.997-17.987 0-9.933-8.06-17.987-18-17.987zm10.625 28.597c-2.72 2.717-6.462 4.392-10.61 4.392s-7.89-1.677-10.61-4.394c-2.72-2.718-4.396-6.462-4.396-10.61 0-4.145 1.68-7.886 4.397-10.607 2.72-2.718 6.463-4.394 10.61-4.394s7.892 1.676 10.61 4.393c2.72 2.72 4.396 6.46 4.397 10.607 0 4.148-1.677 7.892-4.396 10.61zM50.497 1064c-1.658 0-3.003 1.345-3.003 3.002 0 1.658 1.345 3.002 3.004 3.002 1.66 0 3.004-1.344 3.004-3.002 0-1.657-1.346-3-3.004-3zM73 941.007c-5.8 0-10.47 3.928-10.47 8.503 0 3.357 2.327 6.19 5.97 7.49v5l3-4c.313.022 1.148-.02 1.47-.02 5.798 0 10.562-3.928 10.562-8.502 0-4.576-4.733-8.472-10.532-8.472zm0 14.98c-4.69 0-8.49-2.907-8.49-6.493 0-3.587 3.8-6.495 8.49-6.495s8.49 2.907 8.49 6.494c0 3.586-3.8 6.492-8.49 6.492zm18.5 91.552v6.46h-1v-6.768c-.623-.137-1.296-.202-2-.223v6.99h-1v-6.99c-.704.02-1.377.084-2 .22v6.77h-1v-6.462c-1.802.715-3 2.277-3 5.462 0 4.334 2.213 7.95 5.16 8.807L85.5 1085c0 1.104 1.12 2 2.5 2s2.5-.896 2.5-2l-1.16-23.193c2.946-.856 5.16-4.473 5.16-8.807 0-3.185-1.198-4.747-3-5.462zm202.512 11.995c-4.756-2.027-5.96.2-9.215.33l-.058-.61s1.94-2.145 6.46-3.273c4.52-1.128 6.255-6.656 6.255-6.656s-5.51-1.214-8.892.82c-3.382 2.037-3.973 8.155-3.973 8.155s-.02-5.9-.726-7.63c-.705-1.733-2.728-.89-2.728 0s.745 1.114 1.236 1.745c.398.512 1.13 5.54 1.394 7.424-3.07-.274-4.957-2.124-8.783-.568-4.12 1.678-5.968 6.408-5.968 9.77 0 4.766 4.815 15.056 11.37 17.662 1.31.52 2.913-.7 4.114-.7s2.92.97 3.875.7c7.145-2.028 11.607-12.617 11.607-17.662 0-3.39-1.072-7.418-5.97-9.506zM105.567 946.16c-1.374.496-2.24 2.265-1.974 4.237.265 1.972 1.566 3.45 3.02 3.565-.473-1.068-.844-2.385-1.038-3.832-.194-1.445-.183-2.814-.008-3.97zM190.5 1073c-1.676 1.052-3.888 2-6 2-2.113 0-4.325-.948-6-2-5.91 1.818-10 7.797-10 14h32c0-6.203-4.09-12.182-10-14zm529.596 703.11c-.007-.034-.007-.07-.004-.112.004-.04-.003-.082-.014-.12-.015-.04-.02-.08-.02-.122 0-.043-.007-.086-.02-.13-.02-.073-.035-.144-.05-.21-.012-.068-.028-.135-.047-.2-.03-.097-.063-.187-.09-.27-.03-.084-.063-.172-.104-.264-.05-.123-.11-.236-.184-.344-.07-.105-.14-.213-.212-.316l-.088-.102-.097-.102c-.06-.078-.133-.154-.225-.23-.09-.07-.18-.138-.26-.196-.268-.188-.568-.336-.904-.443s-.734-.154-1.193-.145c-.013.01-.03.01-.053 0-.023-.004-.042-.004-.054 0l-.29.03c-.034.005-.065.01-.094.01-.03 0-.06.007-.093.02-.09.026-.184.05-.276.07-.096.017-.183.044-.27.075-.36.15-.668.33-.923.536-.253.207-.475.467-.67.777-.063.096-.12.2-.163.31-.045.112-.095.222-.146.33-.04.105-.065.21-.087.317-.02.105-.045.215-.078.324-.013.03-.02.066-.02.102s-.006.07-.02.102c-.012.04-.017.08-.013.12.002.044-.003.087-.014.132v.06c-.007.032-.007.062 0 .09.006.03.006.062 0 .095-.014.03-.02.082-.02.148 0 .07.006.12.02.152.006.037.006.078 0 .123-.007.04-.007.08 0 .12.01.024.016.052.015.08-.003.03-.003.062.004.095.014.05.023.102.03.148.006.05.017.098.027.145.01.025.012.05.012.072 0 .023.006.05.02.082.033.103.06.204.087.306.025.1.06.195.097.285.168.39.388.726.654 1.007.272.28.6.506.988.674.07.034.144.064.217.09l.22.077c.05.014.102.025.152.033.053.01.104.02.157.034.05.012.1.02.145.023.045.004.094.012.146.023h.108c.03.008.063.01.092.004.028-.002.06 0 .093.008.02.006.062.01.126.014.062.004.107.002.135-.006l.32-.027c.033-.008.065-.012.102-.012.037 0 .07-.002.102-.016.07-.014.143-.025.212-.04.072-.013.145-.032.215-.058.484-.162.893-.393 1.223-.693.33-.3.593-.68.786-1.133.047-.105.084-.21.113-.32.027-.11.06-.222.09-.34.015-.046.024-.09.03-.136.007-.047.016-.092.03-.137.01-.07.02-.143.02-.213s.006-.14.02-.203v-.125c.012-.04.017-.107.013-.2-.002-.093-.01-.16-.024-.198v-.077zm-1.503.486v.17c0 .03-.004.055-.01.082l-.03.232c-.025.084-.047.168-.063.254-.016.084-.04.16-.073.232-.11.28-.243.504-.402.678-.16.176-.376.318-.655.428-.06.027-.12.045-.184.055l-.195.033c-.03.014-.06.02-.084.016s-.057-.002-.09.006h-.2c-.04 0-.08-.008-.118-.02-.033-.007-.063-.01-.092-.005-.03.004-.06-.002-.093-.014l-.258-.08c-.08-.025-.155-.06-.23-.105l-.11-.06c-.035-.02-.07-.046-.1-.077-.157-.107-.288-.25-.39-.43-.105-.18-.19-.37-.262-.58-.026-.062-.045-.13-.054-.2-.014-.073-.025-.144-.045-.216 0-.025-.002-.05-.005-.072-.005-.02-.006-.046-.006-.07-.008-.028-.01-.054-.01-.083s-.005-.058-.01-.083v-.107c-.013-.033-.018-.092-.016-.182.003-.084.012-.146.026-.178.005-.033.005-.068 0-.107-.01-.036-.006-.073.01-.106.005-.025.01-.05.01-.072s.002-.047.008-.072c.02-.07.035-.14.044-.207.01-.07.023-.14.045-.21.1-.292.227-.54.385-.747.157-.21.372-.37.645-.487.058-.025.12-.047.188-.063s.137-.033.208-.045c.032-.014.062-.018.09-.014.025.003.05 0 .075-.005.016-.006.03-.008.047-.004s.03.003.044-.005c.48 0 .855.102 1.123.307.268.202.473.47.615.8.033.072.058.14.078.215l.06.213c.013.04.02.074.02.107.01.045.02.092.024.14.002.05.008.1.022.15.012.026.018.05.015.073-.004.023-.003.045.005.072v.164c.012.035.02.08.02.14 0 .062-.008.11-.02.142zm-21.867-3.703c-.123.004-.236.006-.35.006-.057 0-.126-.004-.205-.008-.075-.002-.155-.002-.232 0-.08.004-.15.014-.212.025-.062.014-.103.035-.122.068-.045.053-.067.145-.063.275.003.132.006.245.006.343v1.275c0 .092.003.197.01.314s-.007.205-.04.266c-.046.078-.13.117-.256.12-.124.005-.246.007-.364.007h-1.882c-.053-.014-.1-.02-.142-.025-.044-.004-.08-.023-.113-.063-.054-.072-.077-.18-.07-.318.006-.145.01-.27.01-.38v-1.634c0-.035-.007-.07-.02-.104-.034-.09-.09-.14-.17-.15-.085-.012-.18-.016-.293-.016h-.783c-.014 0-.027.002-.043.004-.016.005-.03.007-.045.007-.063.02-.11.053-.137.098-.026.047-.04.11-.04.188v6.188c0 .094.005.18.01.266.007.086.036.148.09.186.052.042.143.06.272.058.132-.004.242-.006.335-.006.058 0 .127.002.206.006.078.002.155.002.23 0 .076-.004.145-.012.207-.02.06-.01.103-.03.122-.065.037-.06.057-.143.057-.254v-2.1c0-.03 0-.07-.003-.11-.006-.044-.003-.08.003-.114v-.098c.015-.064.027-.115.04-.146.026-.04.056-.063.088-.073.034-.01.076-.02.13-.034h2.312c.125 0 .21.045.256.135.005.02.008.04.008.06s.005.04.014.06v.098c.006.025.008.053.005.078-.006.027-.006.053-.006.078v1.707c0 .054-.003.114-.005.183-.006.068-.006.137 0 .205 0 .068.01.135.02.197.01.063.022.105.042.13.02.036.06.056.122.065.063.01.132.017.206.02.076.002.15.002.225 0 .075-.004.144-.006.202-.006.11 0 .23.002.357.006.128.002.222-.02.28-.074.045-.033.067-.092.067-.176v-6.508c0-.074-.02-.13-.066-.162-.06-.056-.15-.08-.27-.077zm27.37-73.417c3.813 0 6.404-3.368 6.404-7.882 0-3.41-2.982-6.586-7.515-6.586-5.642 0-8.485 3.916-8.485 7.183 0 1.98.77 3.738 2.43 4.397.272.107.516.003.597-.29.055-.2.182-.71.24-.923.08-.288.05-.39-.17-.64-.478-.55-.782-1.254-.782-2.255 0-2.908 2.243-5.51 5.844-5.51 3.186 0 4.94 1.887 4.94 4.407 0 3.317-1.516 6.116-3.767 6.116-1.24 0-2.17-.994-1.87-2.216.35-1.46 1.047-3.033 1.047-4.08 0-.942-.522-1.73-1.603-1.73-1.27 0-2.288 1.273-2.288 2.98 0 1.086.376 1.816.376 1.816s-1.298 5.338-1.53 6.27c-.21.874-.236 1.84-.203 2.64.15 1.105.17 1.784.28 1.817.115.035.6-.602 1.12-1.322.45-.69.943-1.574 1.194-2.46.147-.514.835-3.162.835-3.162.414.76 1.62 1.43 2.902 1.43zm-20.404 79.268c-.02-.053-.055-.09-.107-.11-.04-.02-.084-.028-.133-.028h-2.927c-.033 0-.07.002-.108.006-.04.002-.075.002-.107-.006h-.098c-.034-.012-.065-.02-.094-.023-.03-.004-.055-.016-.073-.035-.046-.033-.075-.08-.084-.143-.01-.063-.012-.133-.012-.21v-1.026c0-.035.003-.07.01-.104.02-.06.05-.104.093-.133s.097-.05.158-.06.128-.013.2-.01c.07.005.146.007.227.007h1.91c.047 0 .104 0 .173.005s.138.006.204.006c.07 0 .134-.002.19-.01.055-.006.1-.02.132-.04.038-.032.065-.073.08-.126.012-.033.017-.072.017-.117v-.137c0-.054 0-.116.006-.19.002-.07.002-.142 0-.21-.004-.068-.01-.133-.023-.19-.014-.06-.037-.1-.07-.118-.025-.02-.066-.033-.122-.04s-.115-.01-.18-.015c-.065-.004-.133-.004-.203 0-.067.004-.125.006-.17.006h-2.216c-.06 0-.114-.002-.166-.006-.053-.004-.1-.018-.14-.043-.03-.02-.054-.047-.065-.084-.017-.035-.028-.08-.04-.13v-.847c0-.076.003-.148.013-.21s.038-.108.084-.142c.026-.02.067-.033.126-.043.06-.01.123-.016.192-.02.067-.002.138-.002.206 0 .07.004.13.004.183.004h2.64c.057 0 .105-.01.145-.036.045-.027.077-.078.098-.158 0-.064.004-.113.01-.146.007-.046.008-.095.004-.144-.003-.05-.006-.1-.006-.152 0-.045.003-.094.005-.146.002-.053 0-.102-.007-.146v-.11c-.012-.024-.02-.05-.023-.075-.002-.027-.01-.05-.023-.07-.033-.045-.085-.072-.156-.078-.07-.008-.145-.01-.225-.01h-4.52c-.014.006-.026.006-.038.002-.016-.002-.027 0-.04.006-.07.02-.12.052-.147.097-.028.033-.04.078-.04.137v6.48c0 .062.012.11.04.15.032.052.083.083.15.093s.15.016.24.016h4.614c.063 0 .113-.015.152-.05.053-.03.083-.082.088-.15.008-.07.01-.143.01-.22v-.45c0-.054 0-.103-.005-.147-.006-.05-.014-.09-.03-.12zm8.13-5.785c-.122.002-.237.004-.35.004-.056 0-.123-.002-.2-.006-.08-.005-.156-.005-.234 0s-.148.01-.208.024c-.062.012-.104.035-.122.066-.045.053-.065.143-.063.273 0 .13.005.243.005.34v1.264c0 .09.003.193.01.31.005.118-.007.204-.04.263-.044.078-.128.117-.252.12s-.242.007-.36.007h-1.862c-.053-.014-.1-.02-.14-.025-.042-.003-.08-.024-.113-.064-.05-.07-.073-.176-.067-.316.007-.138.01-.263.01-.372v-1.617c0-.033-.007-.066-.02-.1-.032-.09-.09-.14-.17-.15-.082-.01-.177-.014-.287-.014h-.78c-.01 0-.026 0-.044.004-.016.003-.03.005-.04.005-.066.02-.11.05-.137.096s-.04.107-.04.188v6.127c0 .09 0 .178.01.262.006.084.036.145.087.184.052.04.14.06.27.056.13-.004.242-.004.33-.004.06 0 .126 0 .206.005.077.004.153.004.228 0 .076-.004.144-.01.205-.02.06-.012.103-.033.12-.064.04-.058.06-.142.06-.25v-2.08c0-.032 0-.067-.006-.11-.005-.043 0-.078.005-.113v-.096c.012-.063.025-.112.037-.145.027-.038.056-.06.09-.073.03-.01.073-.02.125-.033h2.29c.124 0 .208.045.254.137.007.02.01.04.01.058 0 .02.003.04.01.06v.095c.006.026.01.054.005.08 0 .024-.004.052-.004.077v1.688c0 .053-.003.113-.004.18-.003.068-.003.137 0 .203 0 .07.01.134.02.196.01.06.023.105.043.13.02.032.06.054.12.065.06.01.13.017.203.02.074.005.15.005.225 0 .072-.003.142-.003.198-.003.11 0 .228 0 .354.004.126.005.218-.02.274-.073.048-.03.07-.09.07-.174v-6.44c0-.075-.022-.13-.07-.163-.058-.057-.146-.082-.265-.078zm28.357 5.906c-.004-.045-.01-.084-.025-.115-.02-.052-.054-.09-.105-.11-.04-.016-.083-.025-.132-.025h-2.898c-.03 0-.066.002-.106.004-.037.003-.073 0-.106-.005h-.098c-.03-.014-.063-.02-.09-.025-.03 0-.056-.013-.074-.032-.045-.033-.074-.078-.083-.14-.01-.062-.014-.132-.014-.21v-1.016c0-.033 0-.068.005-.102.022-.057.053-.102.094-.13.043-.03.094-.048.155-.06.06-.01.128-.012.2-.01.07.004.145.006.222.006h1.893c.046 0 .105.002.17.004.07.006.14.006.206.006s.13-.004.184-.01c.057-.008.1-.02.132-.04.037-.03.063-.073.078-.124.013-.033.02-.072.02-.117v-.137c0-.05 0-.113.004-.184.002-.072.002-.14 0-.21-.005-.067-.01-.13-.023-.19-.013-.058-.033-.097-.067-.116-.024-.02-.064-.03-.12-.037-.056-.006-.115-.012-.18-.014-.065-.004-.132-.004-.2 0-.066.002-.124.006-.17.006h-2.194c-.06 0-.11-.003-.166-.005-.05-.004-.097-.018-.135-.045-.034-.018-.056-.047-.07-.082-.01-.035-.025-.08-.037-.13v-.835c0-.078.005-.148.014-.21.01-.062.038-.108.083-.142.024-.017.066-.032.123-.042l.19-.02h.204c.068.007.128.007.18.007h2.612c.056 0 .104-.014.144-.037.045-.03.076-.08.096-.156 0-.065.007-.114.012-.145.006-.046.01-.095.005-.14-.002-.05-.005-.1-.005-.15 0-.047.003-.098.005-.147.004-.054 0-.103-.005-.15v-.104c-.013-.026-.02-.05-.023-.077-.005-.027-.014-.05-.027-.07-.032-.045-.084-.07-.152-.076-.072-.008-.147-.01-.225-.01h-4.477c-.014.006-.026.008-.04.004-.01-.003-.024 0-.038.007-.07.02-.12.05-.146.096-.025.033-.037.078-.037.137v6.414c0 .062.01.112.036.15.034.052.083.08.152.093.067.01.146.016.236.016h4.57c.062 0 .112-.02.15-.052.052-.03.08-.08.09-.15.002-.067.007-.14.007-.22v-.445c-.005-.05-.006-.1-.01-.145zm-13.278-5.902c-.047-.014-.094-.018-.142-.016-.048.003-.098.003-.148.003h-.62c-.072 0-.138.007-.197.017-.058.01-.102.034-.135.07-.038.054-.056.136-.054.243.003.11.006.21.006.305v3.23c0 .246-.008.484-.02.715-.014.23-.055.428-.126.598-.052.108-.122.208-.21.296-.088.086-.187.156-.306.21-.052.024-.123.046-.214.067-.045.013-.093.02-.146.028-.052.008-.103.018-.155.03h-.146c-.023.007-.06.01-.118.015s-.1 0-.126-.006c-.034-.005-.062-.01-.088-.005s-.057 0-.088-.014c-.053-.013-.104-.022-.156-.028-.05-.008-.104-.016-.155-.03-.188-.065-.338-.15-.45-.26-.115-.112-.207-.25-.278-.42-.024-.07-.043-.142-.054-.216-.01-.07-.02-.14-.036-.21-.004-.026-.008-.064-.008-.108-.012-.05-.017-.11-.014-.174.003-.066.004-.127.004-.186v-.154c-.007-.027-.007-.053-.004-.084.003-.027.004-.055.004-.08v-3.322c0-.084 0-.166-.004-.248-.003-.08-.02-.146-.055-.2-.032-.036-.082-.06-.15-.065-.067-.006-.137-.012-.208-.012h-.826c-.013.01-.024.013-.037.013h-.04c-.063.02-.115.05-.154.098-.02.038-.03.09-.03.15v4.26c0 .225.026.43.076.61.014.032.02.06.02.083s.005.05.018.08c.046.15.096.287.15.414.056.127.126.248.21.363.244.358.585.616 1.02.774.435.158.957.234 1.572.227.092 0 .185 0 .28-.006.1-.008.186-.016.263-.03.04-.013.076-.02.112-.02.035 0 .073-.004.11-.018.06-.014.12-.025.18-.04.063-.013.122-.026.18-.048.27-.09.51-.207.71-.35.226-.154.408-.346.548-.568s.254-.49.346-.792c.05-.188.078-.398.086-.63.006-.233.01-.472.01-.718v-3.264c0-.078.002-.164.004-.258.004-.094-.01-.166-.042-.217-.026-.043-.086-.075-.175-.094zm6.97 4.392c0-.016-.002-.033-.01-.053-.024-.066-.05-.13-.072-.195-.02-.064-.05-.124-.082-.175-.11-.176-.228-.318-.354-.428-.128-.11-.276-.22-.45-.33-.11-.072-.235-.127-.375-.164-.14-.04-.276-.08-.405-.13-.032-.01-.064-.016-.097-.016-.034 0-.065-.008-.098-.02-.182-.05-.363-.098-.55-.14-.184-.042-.362-.093-.537-.15-.078-.026-.155-.048-.23-.064-.073-.018-.145-.04-.217-.072-.13-.053-.243-.107-.336-.162-.093-.053-.168-.148-.218-.285-.012-.032-.023-.077-.03-.13-.005-.057-.002-.105.01-.15.034-.176.092-.307.172-.393.08-.09.194-.165.343-.23.09-.038.194-.065.31-.08.118-.01.236-.015.356-.007.118.006.236.02.35.043.112.02.207.05.285.082.086.047.173.102.264.164.05.04.1.095.146.165.045.072.08.14.106.203.03.073.06.146.08.216.018.07.066.123.144.154.038.014.088.02.146.02h.785c.073 0 .14-.004.195-.014s.102-.033.136-.072c.027-.033.04-.082.046-.152.003-.066-.002-.127-.015-.178-.032-.13-.065-.25-.1-.36-.038-.11-.09-.216-.153-.32-.472-.763-1.337-1.134-2.592-1.118-.013.016-.04.018-.083.012-.042-.008-.07-.008-.092 0-.064.014-.127.02-.188.025-.063.003-.124.013-.188.024-.17.04-.326.082-.476.127-.15.046-.288.106-.418.185-.2.13-.378.273-.528.432-.154.16-.276.35-.375.577-.025.064-.045.13-.057.193-.014.066-.03.133-.05.205 0 .05-.003.09-.01.117-.014.07-.016.16-.01.27.007.11.017.193.027.252.02.07.036.14.05.2.014.062.032.12.06.18.07.17.167.315.29.444.123.13.26.243.408.34.116.07.242.134.378.19.137.053.28.107.428.158.054.014.1.025.143.04.04.013.09.024.142.038.024.014.047.02.066.02.02 0 .047.008.08.02.097.033.2.06.306.082.105.023.21.05.314.084.052.014.1.02.14.033.043.01.087.02.132.034.115.04.235.076.354.11.12.038.23.085.325.144.055.023.088.045.11.057.154.097.264.233.327.41.015.03.026.073.035.134.012.06.01.11-.004.153-.05.227-.142.39-.272.486-.13.095-.305.173-.523.23-.03.015-.065.02-.102.026-.034.003-.067.01-.1.015-.046 0-.078.005-.098.01-.053.013-.123.02-.214.02s-.16-.008-.216-.02h-.047c-.052-.013-.1-.02-.142-.02s-.084-.007-.13-.02c-.206-.056-.382-.13-.524-.222-.04-.025-.078-.057-.116-.088-.038-.03-.076-.068-.107-.107-.044-.057-.086-.12-.126-.184-.037-.065-.07-.138-.094-.214-.034-.078-.058-.154-.07-.23-.013-.073-.054-.128-.126-.16-.045-.02-.097-.028-.155-.028h-.776c-.078 0-.147.004-.21.014-.062.01-.106.04-.14.094-.033.037-.045.096-.04.17.007.072.018.137.03.188.014.047.02.088.023.127.005.04.012.08.025.118.058.213.14.398.243.553.16.26.363.47.603.628s.518.29.834.393c.07.026.15.046.233.06s.166.03.243.05l.087.013s.055.006.088.006c.04.01.082.017.13.01.05 0 .097.005.142.017h.1c.03.01.086.01.164.01.076 0 .13 0 .16-.01.016-.005.033-.007.057-.003l.053.004h.077c.04-.01.08-.017.12-.015.043.006.087 0 .134-.012.1-.02.193-.034.29-.044.1-.008.193-.03.283-.063.13-.045.254-.09.374-.135.12-.047.234-.105.345-.178.037-.023.078-.05.11-.076.04-.027.072-.05.105-.078.046-.03.087-.064.126-.102.04-.035.075-.072.11-.11.017-.034.04-.06.066-.083.024-.02.052-.05.076-.08.065-.09.12-.188.167-.28.042-.1.085-.206.122-.323.02-.064.035-.13.045-.193.012-.064.022-.133.036-.205v-.175c.01-.03.01-.064 0-.096 0-.16-.014-.286-.04-.39-.006-.01-.01-.028-.01-.044zM304.5 51.006c-4.417 0-7.998 3.58-7.998 8s3.58 8 7.998 8 7.998-3.583 7.998-8c0-4.418-3.58-8-7.998-8zm1 12.994h-2v-2h2v2zm0-4h-2v-6h2v6zm32 1001h-3v3c0 1.846-1.135 3.337-2.01 4.895-.09-2.965-3.99-5.93-3.99-8.895v-2h-4v2c0 3-4 6.063-4 9v3h11v1h-11v11h11v1h9v-9h-9v-1h9v-3s-3-5-3-8v-3zm131.992 627.328l5.672 5.672-5.672 5.672 1.336 1.336 6.68-6.68v-.656l-6.68-6.68-1.336 1.336zm77.54-1.082c-.677.41-1.418.7-2.213.86-.643-.684-1.55-1.117-2.553-1.117-1.925 0-3.488 1.585-3.488 3.54 0 .277.032.55.09.806-2.894-.148-5.468-1.558-7.187-3.698-.3.522-.472 1.13-.472 1.777 0 1.23.616 2.315 1.553 2.947-.573-.02-1.11-.175-1.58-.444v.047c0 1.716 1.2 3.147 2.797 3.475-.29.076-.6.125-.92.125-.224 0-.44-.026-.655-.07.445 1.413 1.732 2.433 3.258 2.463-1.193.946-2.693 1.516-4.33 1.516-.284 0-.56-.02-.834-.05 1.543 1.005 3.377 1.586 5.345 1.586 6.417 0 9.926-5.394 9.926-10.072 0-.152-.004-.305-.01-.454.682-.5 1.27-1.128 1.74-1.835-.623.28-1.298.475-2.004.56.72-.44 1.274-1.135 1.535-1.965zM320.5 1086c0 1.104.896 2 2 2h8c.415 0 .8-.127 1.12-.343.272.78 1.007 1.343 1.88 1.343h5c1.104 0 2-.896 2-2v-1h-9v-1h-11v1zm366 608.094c0-5.46-1.094-6.094-3-6.094h-14c-1.97 0-3 .656-3 6.03 0 5.292 1.063 5.97 3 5.97h14c1.97 0 3-.698 3-5.906zm-12 3.914v-8.016l6 4.008-6 4.008zm-92-8.008v2h-2v2h2v9h3v-9h2l1-2h-3v-1c0-1.727 1-2 2-2h2v-3h-3c-4.052 0-4 4-4 4zm107.846 83.252c0-.033-.002-.063-.01-.088v-.05c-.007-.032-.015-.063-.024-.093s-.023-.05-.043-.062c-.056-.033-.123-.05-.203-.055-.082-.002-.164-.004-.25-.004h-4.972c-.053.013-.09.024-.108.04-.052.03-.083.08-.093.144-.01.066-.016.143-.016.227v.48c0 .054 0 .106.004.157.004.053.016.096.035.13.025.038.063.067.117.087.05.012.122.018.21.014.09-.002.168-.006.24-.006h.912c.137 0 .255.007.357.017.1.01.168.07.2.18.014.027.018.053.01.078s-.008.057 0 .088c.014.04.02.084.016.133s-.008.097-.008.144v4.79c0 .08.018.147.05.198.034.042.082.065.144.07.062.01.13.01.2.01h.834c.06 0 .11-.005.157-.02.072-.032.113-.085.123-.16.01-.077.015-.167.015-.27v-4.618c0-.04-.002-.086-.006-.133-.004-.05 0-.096.005-.135.014-.03.016-.063.01-.088-.006-.025-.006-.055 0-.088.033-.11.096-.173.19-.183.096-.01.207-.016.34-.016h1c.137 0 .255 0 .353-.007.098-.008.164-.066.197-.178.013-.04.018-.08.014-.12-.004-.044-.005-.087-.005-.134v-.477zM637.5 1686h-14c-.553 0-1 .447-1 1v14c0 .552.447 1 1 1h14c.552 0 1-.448 1-1v-14c0-.553-.448-1-1-1zm-7 6c1.104 0 2 .896 2 2s-.896 2-2 2-2-.896-2-2 .896-2 2-2zm6 8h-12v-7h2.142c-.083.32-.142.652-.142 1 0 2.21 1.79 4 4 4s4-1.79 4-4c0-.348-.06-.68-.142-1h2.142v7zm0-10c0 .552-.448 1-1 1h-1c-.553 0-1-.448-1-1v-1c0-.553.447-1 1-1h1c.552 0 1 .447 1 1v1zm-493.368-610.787l-5.632-9.52V1069h-.41l-.005-.01-.015.01h-9.57v-3h8v-3h-8v-7.35c1.18-.563 2-1.757 2-3.15 0-1.934-1.567-3.5-3.5-3.5s-3.5 1.566-3.5 3.5c0 1.394.82 2.587 2 3.15V1072h10.903l5.456 9.223.474 1.79.502-.137.078.132.488-.285 6.083-1.644-.82-3.093-4.534 1.225zm-283.623-130.22c0-5.51-4.494-9.99-10.014-9.99s-10.01 4.48-10.01 9.99 4.49 9.993 10.01 9.993 10.012-4.482 10.012-9.992zM-145.5 950h-6v-7h2v5h4v2zm-41.25-48h-1.5c-.138 0-.25.112-.25.25v1.5c0 .14.112.25.25.25h1.5c.138 0 .25-.11.25-.25v-1.5c0-.138-.112-.25-.25-.25zm0 3h-1.5c-.138 0-.25.112-.25.25v1.5c0 .14.112.25.25.25h1.5c.138 0 .25-.11.25-.25v-1.5c0-.138-.112-.25-.25-.25zm-11.75 4h13c.552 0 1-.447 1-1v-12c0-.552-.447-1-1-1h-1v-2h-3v2h-5v-2h-3v2h-1c-.552 0-1 .448-1 1v12c0 .553.447 1 1 1zm10-14.75c0-.14.112-.25.25-.25h.5c.14 0 .25.11.25.25v1.5c0 .138-.11.25-.25.25h-.5c-.137 0-.25-.112-.25-.25v-1.5zm-8 0c0-.14.112-.25.25-.25h.5c.14 0 .25.11.25.25v1.5c0 .138-.11.25-.25.25h-.5c-.137 0-.25-.112-.25-.25v-1.5zm-2 3.75h13v10h-13v-10zm16.604 170.8l-7.71-7.954L-166.5 1079c.527-1.386.892-3.634.432-6.152-2.927-16.02-17.046-18.63-20.387-19.2-2.034-.347-12.398-1.628-13.044-1.647.12.653 2.8 11.106 3.443 13.11 1.06 3.293 5.644 17.374 21.56 17.89 2.118.07 3.818-.413 5.026-.953l6.972 4.955 1-2s-2.297-1.223-4.587-2.945c-2.29-1.723-15.805-13.252-15.81-13.255zM-154 990c-1.38 0-2.5 1.12-2.5 2.5s1.12 2.5 2.5 2.5 2.5-1.12 2.5-2.5-1.12-2.5-2.5-2.5zm0 8c-1.38 0-2.5 1.12-2.5 2.5s1.12 2.5 2.5 2.5 2.5-1.12 2.5-2.5-1.12-2.5-2.5-2.5zm-35.75-96h-1.5c-.138 0-.25.112-.25.25v1.5c0 .14.112.25.25.25h1.5c.138 0 .25-.11.25-.25v-1.5c0-.138-.112-.25-.25-.25zm35.75 104c-1.38 0-2.5 1.12-2.5 2.5s1.12 2.5 2.5 2.5 2.5-1.12 2.5-2.5-1.12-2.5-2.5-2.5zm-32.75-107h-10.5c-.138 0-.25.112-.25.25v1.5c0 .14.112.25.25.25h10.5c.138 0 .25-.11.25-.25v-1.5c0-.138-.112-.25-.25-.25zm-10.75-43h7v-1h-7v1zm-1 6h9c.552 0 1-.448 1-1v-8c0-.553-.448-1-1-1v-2h-3v2h-3v-2h-3v2c-.552 0-1 .447-1 1v8c0 .552.448 1 1 1zm7-11h1v2h-1v-2zm-6 0h1v2h-1v-2zm-1 3h9v7h-9v-7zm8.75 51h-1.5c-.138 0-.25.112-.25.25v1.5c0 .14.112.25.25.25h1.5c.138 0 .25-.11.25-.25v-1.5c0-.138-.112-.25-.25-.25zm-6 0h-1.5c-.138 0-.25.112-.25.25v1.5c0 .14.112.25.25.25h1.5c.138 0 .25-.11.25-.25v-1.5c0-.138-.112-.25-.25-.25zm4.25-47h1v-1h-1v1zm-4.25 44h-1.5c-.138 0-.25.112-.25.25v1.5c0 .14.112.25.25.25h1.5c.138 0 .25-.11.25-.25v-1.5c0-.138-.112-.25-.25-.25zm3 0h-1.5c-.138 0-.25.112-.25.25v1.5c0 .14.112.25.25.25h1.5c.138 0 .25-.11.25-.25v-1.5c0-.138-.112-.25-.25-.25zm0 3h-1.5c-.138 0-.25.112-.25.25v1.5c0 .14.112.25.25.25h1.5c.138 0 .25-.11.25-.25v-1.5c0-.138-.112-.25-.25-.25zm107.25-48.5l5-3.5h-6l-1.51-4.966L-89.5 853h-6l5 3.563-2 5.438 4.458-3.003L-83.5 862l-2-5.5zm54.996 83.503L-38.5 946v13l7.996-6.037v-12.96zm9.002 59.812l-14.813-14.813-2.18 2.18 13.315 13.317-13.316 13.314 2.18 2.18 14.814-14.812v-1.368zM-131.5 1009v-1c0-.553-.448-1-1-1h-16c-.552 0-1 .447-1 1v1c0 .552.448 1 1 1h16c.552 0 1-.448 1-1zm90-157l-3.53-3-3.47 3v10h7v-10zm-3.5 4c-.83 0-1.5-.672-1.5-1.5s.67-1.5 1.5-1.5 1.5.672 1.5 1.5-.67 1.5-1.5 1.5zm41.05 196.01c-1.1 0-7.636.467-8.55 5.99-.915-5.523-7.423-5.99-8.522-5.99-6.343.77-8.425 4.972-9.343 9.39-1.83 11.784 17.952 25.59 17.952 25.59s19.635-13.806 17.802-25.59c-.916-4.42-3-8.62-9.34-9.39zM38.5 953h-1v-1h5v-4h-1v-2h1v-4h-16v4h1v1h-5v4h1v2h-1v4h16v-4zm-10-9h12v1.277c-.595.347-1 .984-1 1.723s.405 1.376 1 1.723V950h-2v-3h-9c0-.738-.405-1.376-1-1.723V944zm8 6.277c-.595.347-1 .984-1 1.723s.405 1.376 1 1.723V955h-12v-1.277c.595-.347 1-.984 1-1.723s-.405-1.376-1-1.723V949h12v1.277zm-38.996 37.907L9.82 1000.5l-12.316 12.316 2.18 2.18 13.814-13.812v-1.37l-13.813-13.81-2.18 2.18zm-45-35.22L-39.5 959v-13l-7.996-5.997v12.96zM-118.5 1054h-1c-1.302-.02-2.945.553-3 2v9h16c0-6.137-5.198-11-12-11zm20-52l8 4v-16h-3l-5 12zm-6 10h14v-2l-10-6-4 8zm-31.447 55l-3.594-3.595c.025-.13.04-.267.04-.405 0-1.104-.896-2-2-2s-2 .896-2 2 .896 2 2 2c.14 0 .275-.015.406-.042l3.594 3.595V1072c0 3.426 2.158 6.34 5.185 7.48-.73.8-1.184 1.853-1.184 3.02 0 2.485 2.017 4.5 4.5 4.5s4.5-2.015 4.5-4.5c0-.926-.28-1.785-.76-2.5h6.52c-.477.715-.76 1.574-.76 2.5 0 2.485 2.017 4.5 4.5 4.5s4.5-2.015 4.5-4.5c0-1.167-.454-2.22-1.182-3.02 3.027-1.14 5.184-4.055 5.184-7.48v-4c0-.34-.027-.672-.068-1h-29.38zm6.947 17c-.83 0-1.5-.672-1.5-1.5 0-.83.67-1.5 1.5-1.5s1.5.67 1.5 1.5c0 .828-.67 1.5-1.5 1.5zm14 0c-.83 0-1.5-.672-1.5-1.5 0-.83.67-1.5 1.5-1.5s1.5.67 1.5 1.5c0 .828-.67 1.5-1.5 1.5zm55.5-32c-1.095 0-7.956.03-8.864 5.555 0 .102-.012.102-.012 0-.91-5.523-7.03-5.555-8.124-5.555-6.31.772-8.743 4.825-9.656 9.243-.338 2.185-.222 4.535.656 6.757h6l4-7c.32-.61 1.02-1.433 1.7-1.338.68.092 1.148.662 1.3 1.338l2 11 2.026-3.04c.288-.526 1.38-.96 1.974-.96h15c.925-2.29 1.26-4.505.913-6.757-.91-4.418-2.604-8.47-8.913-9.243zm98.99 15.002c0-1.657-1.337-3-2.99-3-1.648 0-2.988 1.343-2.988 3 0 1.658 1.34 3.002 2.99 3.002 1.65 0 2.99-1.344 2.99-3.002zM-68.5 1076c-.968 1.648-1.518 1.96-2.08 1.984-.66-.113-1.447-.502-1.92-1.984l-2-10-2 4c-.28.544-1.393 1-2 1h-5c5.02 8.435 15.203 15.834 15.203 15.834s9.778-7.49 14.797-15.834h-13l-2 5zm740 697v7h9v-7l-4.53-4-4.47 4zM4.802 1.256C4.672.968 4.49.73 4.256.546 4.024.356 3.748.22 3.426.13 3.106.044 2.764 0 2.396 0c-.492 0-.94.11-1.342.332C.65.554.298.846 0 1.21l1.066.984c.175-.178.357-.323.546-.438.188-.117.405-.173.65-.173.264 0 .477.07.64.212.16.142.242.352.242.626 0 .17-.046.333-.138.487-.092.156-.208.315-.348.48-.14.163-.287.335-.44.51-.155.18-.293.375-.415.586-.123.214-.218.444-.283.694-.066.248-.078.523-.033.824h1.697c-.026-.265 0-.502.08-.712.078-.207.185-.404.32-.59.137-.187.287-.367.45-.54.16-.173.314-.353.46-.54.144-.184.264-.387.36-.604.098-.218.146-.464.146-.74 0-.39-.066-.728-.198-1.017zM2.37 7c-.287 0-.524.095-.713.286-.188.192-.282.43-.282.72 0 .28.094.516.282.707.19.19.426.287.712.287s.524-.096.715-.287c.192-.19.29-.427.29-.708 0-.288-.097-.527-.29-.72-.19-.19-.43-.285-.717-.285z"/>
    </symbol>
    <symbol id="icon-questionmark" viewBox="0 0 4.991 9.01">
      <title>icon-questionmark icon</title>
      <path d="M3.18 5.856c-.027-.26 0-.49.078-.695.08-.2.186-.394.32-.575.137-.182.286-.357.448-.526s.315-.345.46-.526c.145-.183.265-.38.36-.592.097-.21.145-.452.145-.72 0-.38-.063-.712-.194-.993C4.663.946 4.48.713 4.25.532 4.017.35 3.74.216 3.42.13S2.76 0 2.392 0C1.9 0 1.452.108 1.05.325.647.54.297.827 0 1.182l1.064.96c.175-.173.356-.315.545-.428s.403-.168.65-.168c.26 0 .473.07.635.208.163.137.244.34.244.61 0 .164-.047.322-.14.473s-.207.307-.35.468c-.14.16-.284.327-.437.5-.153.173-.292.362-.414.57-.124.208-.218.434-.283.676-.066.244-.078.51-.034.807H3.18zm-1.682 2.81c.22.23.494.344.827.344s.61-.114.834-.344.333-.513.333-.85c0-.347-.11-.635-.335-.864s-.502-.343-.835-.343-.608.112-.827.342-.328.517-.328.863c0 .338.11.62.328.85z"/>
    </symbol>
    <symbol id="icon-search" viewBox="0 0 16 16">
      <title>icon-search icon</title>
      <path d="M15.707 14.292l-3.96-3.967c.783-1.075 1.25-2.395 1.25-3.825C13 2.91 10.09 0 6.5 0S0 2.91 0 6.5 2.91 13 6.5 13c1.436 0 2.757-.47 3.833-1.258l3.96 3.966c.39.39 1.023.39 1.414 0 .39-.39.39-1.025 0-1.416zM2 6.5C2 4.014 4.015 2 6.5 2S11 4.014 11 6.5C11 8.985 8.985 11 6.5 11S2 8.985 2 6.5z"/>
    </symbol>
    <symbol id="icon-settings" viewBox="0 0 22 22">
      <title>icon-settings icon</title>
      <path fill-rule="evenodd" d="M21 9h-1.23c-.224-.984-.61-1.905-1.128-2.737l1.086-1.086c.4-.4.4-1.052 0-1.452l-1.452-1.452c-.4-.4-1.05-.4-1.452 0L15.738 3.36c-.833-.52-1.754-.905-2.738-1.13V1c0-.552-.448-1-1-1h-2c-.553 0-1 .448-1 1v1.23c-.986.225-1.908.612-2.74 1.13L5.2 2.303c-.4-.4-1.05-.4-1.45 0L2.3 3.753c-.4.4-.4 1.048 0 1.45l1.06 1.055c-.518.833-.905 1.754-1.13 2.74H1c-.553 0-1 .447-1 1v2c0 .552.447 1 1 1h1.23c.224.984.61 1.905 1.128 2.737L2.303 16.79c-.4.4-.4 1.05 0 1.452l1.452 1.45c.4.402 1.05.402 1.452 0L6.26 18.64c.836.52 1.756.905 2.74 1.13V21c0 .552.448 1 1 1h2c.553 0 1-.448 1-1v-1.23c.987-.225 1.908-.61 2.74-1.13l1.06 1.057c.4.4 1.05.4 1.45 0l1.447-1.45c.4-.4.4-1.048 0-1.448l-1.057-1.06c.518-.834.904-1.755 1.13-2.74H21c.552 0 1-.45 1-1v-2c0-.554-.448-1-1-1zm-10 7c-2.762 0-5-2.238-5-5s2.238-5 5-5 5 2.238 5 5-2.238 5-5 5z"/>
    </symbol>
    <symbol id="icon-share" viewBox="0 0 16.063 14">
      <title>icon-share icon</title>
      <path fill-rule="evenodd" d="M12.048 12H2.008V5h1.54c.684-.888 1.555-1.537 2.477-2h-5.02C0 3 0 4 0 4v9s0 1 1.004 1h12.048s1.004 0 1.004-1V9.25l-2.008 2.25v.5zm3.87-7.354L11.9.146C11.806.05 11.678 0 11.547 0c-.064 0-.13.012-.192.038-.187.077-.31.26-.31.46V3c-.005 0-7.542.002-7.542 6.49 2.51-2.5 7.54-2.49 7.54-2.49v2.5c0 .203.123.385.31.463.063.025.128.037.193.037.13 0 .26-.05.355-.146l4.018-4.5c.098-.098.146-.226.146-.354s-.048-.256-.146-.354z"/>
    </symbol>
    <symbol id="icon-small_botle" viewBox="0 0 7 22">
      <title>icon-small_botle icon</title>
      <path d="M6 9s-.604-.645-1-3H2c-.394 2.355-1 3-1 3-.986 1.728-1 3-1 3v2h7v-2s-.013-1.272-1-3zM0 19h7v-4H0v4zM5 0H2v5h3V0zM0 22h7v-2H0v2z"/>
    </symbol>
    <symbol id="icon-small_calendar" viewBox="0 0 11 12">
      <title>icon-small_calendar icon</title>
      <path d="M3 7H2v1h1V7zm0 2H2v1h1V9zm3 1h1V9H6v1zM4 8h1V7H4v1zm0 2h1V9H4v1zm2-2h1V7H6v1zm2 2h1V9H8v1zm1-5H2v1h7V5zm1-3V0H7v2H4V0H1v2c-.552 0-1 .447-1 1v8c0 .552.448 1 1 1h9c.552 0 1-.448 1-1V3c0-.553-.448-1-1-1zM8 1h1v2H8V1zM2 1h1v2H2V1zm8 10H1V4h9v7zM8 8h1V7H8v1z"/>
    </symbol>
    <symbol id="icon-small_clock" viewBox="0 0 12 12">
      <title>icon-small_clock icon</title>
      <path d="M6 0C2.687 0 0 2.687 0 6c0 3.314 2.687 6 6 6s6-2.686 6-6c0-3.313-2.687-6-6-6zm2.995 6.998H5v-4.99h2V5h1.996v1.996z"/>
    </symbol>
    <symbol id="icon-small_star" viewBox="0 0 14 14">
      <title>icon-small_star icon</title>
      <path d="M9.5 8.486L14 5H8.5L6.99 0 5.5 5H0l4.5 3.55-2 5.45 4.458-3.013L11.5 14z"/>
    </symbol>
    <symbol id="icon-small_tickets" viewBox="0 0 14 11">
      <title>icon-small_tickets icon</title>
      <path d="M14 3V0H3v3h1v1H0v3h1v1H0v3h11V8h-1V7h4V4h-1V3h1zm-4 3H9v3h1v1H1V9h1V6H1V5h9v1zm3-1v1h-2V4H5V2H4V1h9v1h-1v3h1z"/>
    </symbol>
    <symbol id="icon-smallest_heart" viewBox="0 0 14 13">
      <title>icon-smallest_heart icon</title>
      <path d="M12.803 1.315c-1.598-1.753-4.187-1.753-5.784 0l-.01.01h-.02l-.01-.01C5.38-.438 2.79-.438 1.195 1.315s-1.596 4.595 0 6.35l4.928 4.906s.875.968 1.75 0 4.928-4.905 4.928-4.905c1.596-1.754 1.596-4.596 0-6.35z"/>
    </symbol>
    <symbol id="icon-smallest_pin" viewBox="0 0 7 12">
      <title>icon-smallest_pin icon</title>
      <path fill-rule="evenodd" clip-rule="evenodd" d="M3.5 0C1.567 0 0 1.567 0 3.5S3.5 12 3.5 12 7 5.433 7 3.5 5.434 0 3.5 0zm0 5.005c-.83 0-1.5-.67-1.5-1.5s.67-1.5 1.5-1.5 1.5.67 1.5 1.5c0 .828-.672 1.5-1.5 1.5z"/>
    </symbol>
    <symbol id="icon-smile_face" viewBox="0 0 36 36">
      <title>icon-smile_face icon</title>
      <path d="M17.75 29.953c3.958 0 7.72-2.417 8.258-5.95h-16c.537 3.533 3.783 5.95 7.742 5.95zM18 0C8.06.003 0 8.06 0 18c0 9.942 8.06 18 18 18s18-8.058 18-18c0-9.94-8.06-18-18-18zm10.627 28.617c-2.72 2.72-6.463 4.395-10.612 4.395s-7.892-1.676-10.613-4.395C4.684 25.897 3.006 22.15 3.006 18c0-4.15 1.677-7.893 4.396-10.615 2.72-2.72 6.464-4.396 10.613-4.396s7.892 1.676 10.612 4.394c2.72 2.723 4.396 6.466 4.397 10.615-.002 4.15-1.678 7.896-4.397 10.616zm-3.622-15.614c-1.66 0-3.004 1.344-3.004 3 0 1.66 1.347 3.003 3.006 3.003 1.66 0 3.004-1.344 3.004-3.002 0-1.657-1.346-3-3.005-3zm-11.006 3c0-1.656-1.34-3-2.99-3-1.65 0-2.99 1.344-2.99 3 0 1.66 1.34 3.003 2.99 3.003 1.65 0 2.99-1.344 2.99-3.002z"/>
    </symbol>
    <symbol id="icon-star" viewBox="0 0 19 17.004">
      <title>icon-star icon</title>
      <path fill-rule="evenodd" d="M9.5 0L12 6.004h7l-6 4 2 7-5.5-4.01-5.5 4.01 2-7-6-4h7L9.5 0z"/>
    </symbol>
    <symbol id="icon-tag" viewBox="0 0 7 13">
      <title>icon-tag icon</title>
      <path d="M3.47 0L0 3v10h7V3L3.47 0zm.03 7C2.67 7 2 6.328 2 5.5S2.67 4 3.5 4 5 4.672 5 5.5 4.33 7 3.5 7z"/>
    </symbol>
    <symbol id="icon-tags" viewBox="0 0 11.02 13.996">
      <title>icon-tags icon</title>
      <path d="M4.677 1.538L9.507 0l1.513 4.908-4.676 9.088L0 10.626 4.677 1.54z"/>
    </symbol>
    <symbol id="icon-thehouse" viewBox="0 0 68.685 11.051">
      <title>icon-thehouse icon</title>
      <path d="M48.596 7.11c-.007-.034-.007-.07-.004-.112.004-.04-.003-.082-.014-.12-.015-.04-.02-.08-.02-.122 0-.043-.007-.086-.02-.13-.02-.073-.035-.144-.05-.21-.012-.068-.028-.135-.047-.2-.03-.097-.063-.187-.09-.27-.03-.084-.063-.172-.104-.264-.05-.123-.11-.236-.184-.344-.07-.105-.14-.213-.212-.316l-.088-.102-.097-.102c-.057-.078-.13-.154-.223-.228-.09-.072-.18-.14-.26-.197-.268-.188-.568-.336-.904-.443s-.734-.152-1.193-.143c-.014.01-.032.01-.054 0-.023-.004-.042-.004-.054 0l-.29.03c-.034.005-.065.01-.094.01-.028 0-.06.007-.09.02-.092.026-.184.05-.276.07-.096.017-.183.044-.27.075-.36.15-.668.328-.923.535-.252.207-.474.467-.668.777-.064.096-.12.2-.164.31-.044.112-.094.222-.145.33-.04.105-.066.21-.088.317-.02.107-.045.217-.078.326-.014.03-.02.066-.02.102s-.007.07-.02.102c-.013.038-.018.08-.014.12 0 .043-.004.086-.015.13v.06c-.006.033-.006.063 0 .092.007.03.007.06 0 .094-.013.03-.02.082-.02.148 0 .07.007.12.02.152.007.037.007.078 0 .123-.006.037-.006.08 0 .117.01.025.017.053.016.082-.004.03-.004.06.003.093.013.05.022.102.03.148.005.05.016.097.026.144.01.025.01.05.01.072 0 .023.007.05.02.082.034.103.062.204.088.306.027.1.06.195.1.285.167.39.387.725.653 1.006.27.28.598.506.987.674.07.034.144.064.217.09l.22.077c.05.014.104.025.154.033.053.01.104.02.157.035.053.012.1.02.147.023.044.004.093.012.145.023h.107c.03.01.062.01.09.006.03-.002.06 0 .094.008.02.006.062.01.126.014.063.004.108.002.136-.006l.32-.026c.033-.008.065-.012.102-.012.037 0 .07-.004.102-.018.072-.014.144-.025.213-.04.07-.013.144-.032.214-.058.484-.162.893-.393 1.223-.693.33-.3.593-.68.786-1.133.046-.104.083-.21.112-.32.028-.11.06-.22.092-.338.014-.047.023-.092.03-.137.006-.047.015-.092.03-.137.01-.07.018-.143.018-.213s.007-.14.02-.203v-.126c.013-.04.018-.107.014-.2-.003-.093-.012-.16-.025-.198v-.08zm-1.503.486v.17c0 .03-.004.055-.01.082l-.03.232c-.025.084-.047.168-.063.254-.016.084-.04.16-.073.232-.11.28-.243.504-.402.678-.16.176-.376.318-.655.428-.06.027-.12.045-.184.055l-.195.033c-.03.014-.06.02-.084.016s-.057-.002-.09.006h-.2c-.04 0-.08-.008-.118-.02-.033-.007-.063-.01-.092-.005-.03.004-.06-.002-.093-.014l-.258-.08c-.08-.025-.155-.06-.23-.105l-.11-.06c-.035-.02-.07-.046-.1-.077-.157-.107-.288-.25-.39-.43-.105-.18-.19-.37-.262-.58-.026-.062-.045-.13-.054-.2-.014-.073-.025-.144-.045-.216 0-.025-.002-.05-.005-.072-.005-.02-.006-.046-.006-.07-.008-.028-.01-.054-.01-.083s-.005-.058-.01-.083v-.11c-.013-.032-.018-.09-.016-.18.003-.085.012-.147.026-.18.005-.032.005-.067 0-.106-.01-.037-.006-.074.01-.107.005-.025.01-.05.01-.072s.002-.046.008-.07c.02-.07.035-.14.044-.208.01-.07.023-.138.045-.21.1-.29.227-.54.385-.746.157-.21.372-.37.645-.486.058-.025.12-.047.188-.063s.137-.033.208-.045c.032-.014.062-.018.09-.014.025.002.05 0 .075-.006.016-.006.03-.008.047-.004s.03.002.044-.006c.48 0 .855.102 1.123.307.268.202.473.47.615.8.033.072.058.14.078.215l.06.213c.013.04.02.074.02.107.01.045.02.092.024.14.002.05.008.1.022.15.012.026.018.05.015.073-.004.023-.003.045.005.072v.164c.012.035.02.08.02.14 0 .064-.008.11-.02.144zM25.226 3.893c-.123.004-.236.006-.35.006-.057 0-.126-.004-.205-.008-.075-.002-.155-.002-.232 0-.08.004-.15.014-.212.025-.062.014-.103.035-.122.068-.045.053-.067.145-.063.275.003.132.006.245.006.343v1.275c0 .092.003.197.01.314s-.007.205-.04.266c-.046.078-.13.117-.256.12-.124.005-.246.007-.364.007h-1.882c-.053-.014-.1-.02-.142-.025-.044-.004-.08-.023-.113-.063-.054-.072-.077-.18-.07-.318.006-.145.01-.27.01-.38V4.167c0-.035-.007-.07-.02-.104-.034-.09-.09-.14-.17-.15-.085-.012-.18-.016-.293-.016h-.783c-.014 0-.027.002-.043.004-.016.004-.03.006-.045.006-.063.02-.11.053-.137.098-.026.047-.04.11-.04.188v6.188c0 .092.005.18.01.264.007.086.036.148.09.186.052.04.143.06.272.057.132-.006.242-.008.335-.008.058 0 .127.002.206.006h.23c.076-.005.145-.013.207-.022.06-.01.103-.03.122-.064.037-.06.057-.143.057-.254v-2.1c0-.034 0-.07-.003-.114-.006-.043-.003-.08.003-.113v-.097c.015-.064.027-.115.04-.146.026-.042.056-.065.088-.075.034-.01.076-.02.13-.033h2.312c.125 0 .21.044.256.134.005.02.008.04.008.06s.005.04.014.06v.098c.006.025.008.053.005.078-.006.027-.006.053-.006.078v1.708c0 .053-.003.113-.005.182-.006.068-.006.137 0 .205 0 .068.01.135.02.197.01.063.022.105.042.13.02.036.06.056.122.065.063.01.132.018.206.02.076.003.15.003.225 0 .075-.003.144-.005.202-.005.11 0 .23.002.357.006.128.002.222-.02.28-.074.045-.033.067-.092.067-.176v-6.51c0-.073-.02-.128-.066-.16-.06-.054-.15-.077-.27-.075zm6.966 5.85c-.02-.052-.055-.09-.107-.108-.04-.02-.084-.03-.133-.03h-2.927c-.033 0-.07.003-.108.007-.04.002-.075.002-.107-.006h-.098c-.034-.012-.065-.02-.094-.023-.03-.004-.055-.016-.073-.035-.046-.033-.075-.08-.084-.143-.01-.063-.012-.133-.012-.21V8.167c0-.033.003-.068.01-.102.02-.06.05-.104.093-.133s.097-.05.158-.06.128-.013.2-.01c.07.005.146.007.227.007h1.91c.047 0 .104 0 .173.003s.138.006.204.006c.07 0 .134-.005.19-.01.055-.01.1-.02.132-.04.038-.035.065-.076.08-.13.012-.032.017-.07.017-.116V7.45c0-.054 0-.116.006-.19.002-.07.002-.142 0-.21-.004-.068-.01-.133-.023-.19-.014-.06-.037-.1-.07-.118-.025-.02-.066-.033-.122-.04s-.115-.01-.18-.015c-.065-.004-.133-.004-.203 0-.067.004-.125.006-.17.006H28.86c-.06 0-.115-.002-.167-.006-.053-.004-.1-.018-.14-.043-.03-.02-.054-.047-.065-.084-.016-.035-.027-.08-.04-.13v-.846c0-.076.004-.148.014-.21s.038-.108.084-.142c.026-.02.067-.035.126-.045.06-.01.123-.016.192-.02.067-.002.138-.002.206 0 .068.004.13.004.182.004h2.64c.057 0 .105-.01.145-.035.045-.027.077-.078.098-.158 0-.064.004-.113.01-.146.007-.044.008-.093.004-.142-.004-.05-.007-.1-.007-.152 0-.045.003-.094.005-.146.003-.054.002-.103-.006-.147v-.11c-.012-.025-.02-.05-.023-.076-.003-.027-.01-.05-.024-.07-.033-.045-.085-.072-.156-.078-.07-.008-.146-.01-.226-.01H27.19c-.013.006-.025.006-.037.002-.016-.002-.027 0-.04.006-.07.02-.12.052-.147.097-.027.033-.04.078-.04.137v6.48c0 .062.013.11.04.15.033.052.084.083.152.093s.15.016.24.016h4.613c.065 0 .115-.015.154-.05.053-.03.083-.082.088-.15.01-.07.01-.143.01-.22v-.45c0-.054 0-.103-.004-.147 0-.05-.01-.09-.024-.12zm8.13-5.784c-.122.002-.237.004-.35.004-.056 0-.123-.002-.2-.006-.08-.005-.156-.005-.234 0s-.148.01-.208.024c-.062.012-.104.035-.122.066-.045.053-.065.143-.063.273 0 .13.005.243.005.34v1.264c0 .09.003.193.01.31.005.118-.007.204-.04.263-.044.078-.128.117-.252.12s-.242.007-.36.007h-1.862c-.053-.014-.1-.02-.14-.025-.042-.003-.08-.024-.113-.064-.05-.07-.073-.176-.067-.316.007-.138.01-.263.01-.372V4.23c0-.035-.007-.068-.02-.1-.032-.092-.09-.143-.17-.152-.082-.01-.177-.014-.287-.014h-.78c-.01 0-.026 0-.044.004-.016.004-.03.006-.04.006-.066.02-.11.05-.137.096s-.04.105-.04.186v6.127c0 .09 0 .178.01.262.006.084.036.145.087.184.052.037.14.057.27.053.13-.004.242-.004.33-.004.06 0 .126 0 .206.003.077.004.153.004.228 0 .076-.004.144-.01.205-.02.06-.012.103-.033.12-.064.04-.06.06-.144.06-.253v-2.08c0-.032 0-.067-.006-.11-.005-.043 0-.078.005-.113v-.097c.012-.064.025-.113.037-.146.027-.036.056-.06.09-.07.03-.01.073-.02.125-.034h2.29c.124 0 .208.045.254.137.007.02.01.04.01.057 0 .02.003.04.01.06v.096c.006.027.01.055.005.08-.003.024-.006.05-.006.076v1.688c0 .053-.005.113-.006.18-.003.068-.003.137 0 .203 0 .068.01.133.02.195.01.06.023.105.043.13.02.032.06.054.122.065.06.01.13.016.2.02.075.004.15.004.226 0 .073-.004.143-.004.2-.004.11 0 .227 0 .353.002.125.004.217-.02.273-.074.048-.032.07-.09.07-.175v-6.44c0-.074-.022-.13-.07-.162-.056-.05-.144-.074-.263-.07zM68.68 9.865c-.004-.045-.01-.084-.025-.115-.02-.052-.054-.09-.105-.11-.04-.016-.083-.025-.132-.025H65.52c-.03 0-.066.002-.106.004-.037.003-.073 0-.106-.005h-.098c-.03-.014-.063-.02-.09-.025-.03 0-.056-.013-.074-.032-.045-.033-.074-.078-.083-.14-.01-.062-.014-.132-.014-.21V8.19c0-.032 0-.067.005-.1.022-.058.053-.103.094-.132.043-.03.094-.047.155-.06.06-.01.128-.01.2-.01.07.005.145.007.222.007h1.893c.046 0 .105.002.17.004.07.004.14.004.206.004s.13-.004.184-.01c.057-.008.1-.02.132-.04.037-.03.063-.073.078-.124.013-.032.02-.07.02-.116V7.48c0-.052 0-.114.004-.185.002-.072.002-.14 0-.21-.005-.067-.01-.13-.023-.19-.013-.058-.033-.097-.067-.116-.024-.02-.064-.033-.12-.04-.056-.007-.115-.013-.18-.015-.065-.004-.132-.004-.2 0-.066.002-.124.006-.17.006H65.36c-.058 0-.11-.003-.165-.005-.05-.004-.097-.018-.135-.045-.033-.017-.055-.046-.068-.08-.012-.036-.026-.08-.038-.132v-.833c0-.078.005-.148.014-.21.01-.062.038-.108.083-.142.025-.018.067-.033.124-.043.06-.008.124-.014.19-.02.067-.002.137-.002.204 0 .068.006.128.006.18.006h2.612c.057 0 .105-.014.145-.037.045-.03.076-.08.096-.158 0-.066.008-.115.013-.146.006-.045.01-.094.005-.14-.002-.05-.005-.1-.005-.15 0-.046.003-.097.005-.146.004-.052 0-.1-.005-.147v-.106c-.013-.025-.02-.05-.023-.076-.004-.025-.013-.05-.026-.07-.032-.043-.084-.07-.152-.074-.073-.008-.148-.01-.226-.01H63.71c-.014.006-.026.008-.04.004-.01-.005-.024-.003-.038.005-.07.02-.12.05-.146.096-.025.035-.037.08-.037.14v6.413c0 .06.01.11.035.15.034.05.083.08.152.092.067.01.146.016.236.016h4.568c.064 0 .114-.017.15-.05.054-.03.083-.082.09-.15.004-.07.01-.14.01-.22v-.446c-.006-.052-.007-.1-.01-.146zM55.4 3.966c-.047-.015-.094-.02-.142-.017-.048.002-.098.002-.148.002h-.62c-.072 0-.138.006-.197.016-.058.01-.102.034-.135.07-.038.054-.056.136-.054.243.003.11.006.21.006.306v3.23c0 .246-.008.484-.02.715-.014.23-.055.43-.126.6-.052.107-.122.207-.21.295-.088.086-.187.156-.306.21-.052.024-.123.046-.214.067-.045.012-.093.02-.146.027-.052.007-.103.017-.155.03h-.146c-.023.006-.06.01-.118.014s-.1 0-.126-.006c-.034-.005-.062-.01-.088-.005s-.057 0-.088-.014c-.053-.014-.104-.023-.156-.03-.05-.007-.104-.015-.155-.03-.188-.064-.338-.15-.45-.26-.115-.11-.207-.25-.278-.42-.024-.07-.043-.14-.054-.215-.01-.07-.02-.14-.036-.21-.004-.026-.008-.064-.008-.108-.012-.05-.017-.11-.014-.174.003-.066.004-.127.004-.186v-.153c-.007-.027-.007-.053-.004-.084.003-.026.004-.054.004-.08V4.48c0-.085 0-.167-.004-.25-.003-.08-.02-.145-.055-.198-.032-.037-.082-.06-.15-.066-.067-.006-.137-.012-.208-.012h-.826c-.013.008-.024.012-.037.012h-.04c-.063.02-.115.05-.154.098-.02.036-.03.086-.03.147v4.26c0 .227.027.43.077.61.015.034.02.06.02.085s.006.05.02.08c.045.15.095.287.15.414.055.126.125.247.208.362.245.358.586.616 1.02.774.436.158.958.234 1.573.227.093 0 .186 0 .28-.007.1-.008.187-.016.264-.03.04-.013.077-.02.113-.02.035 0 .073-.004.11-.018.06-.014.12-.025.18-.04.063-.013.122-.026.18-.048.27-.09.51-.207.71-.35.226-.154.408-.346.548-.568s.254-.49.346-.792c.05-.188.08-.398.086-.63.006-.233.01-.472.01-.718V4.537c0-.078.002-.164.004-.258.005-.096-.01-.168-.04-.22-.028-.045-.088-.077-.177-.096zm6.97 4.39c0-.015-.002-.032-.01-.052-.024-.066-.05-.13-.072-.195-.02-.065-.05-.125-.082-.176-.11-.176-.228-.318-.354-.428-.128-.11-.276-.22-.45-.33-.11-.072-.235-.127-.375-.164-.14-.04-.276-.082-.405-.13-.032-.01-.064-.017-.097-.017-.034 0-.065-.008-.098-.02-.182-.05-.363-.098-.55-.14-.184-.042-.362-.093-.537-.15-.078-.026-.155-.048-.23-.064-.073-.017-.145-.04-.217-.07-.13-.054-.243-.108-.336-.163-.093-.053-.168-.148-.218-.285-.012-.033-.023-.078-.03-.13-.005-.058-.002-.106.01-.15.034-.177.092-.308.172-.394.08-.09.194-.165.343-.23.09-.038.194-.065.31-.08.118-.01.236-.015.356-.007.118.007.236.02.35.044.112.02.207.05.285.082.086.047.173.102.264.164.05.04.1.096.146.166.045.072.08.14.106.203.03.072.06.145.08.215.018.07.066.123.144.154.038.013.088.02.146.02h.785c.073 0 .14-.005.195-.015s.102-.033.136-.072c.027-.033.04-.082.046-.152.003-.065-.002-.126-.015-.177-.032-.13-.065-.25-.1-.36-.038-.11-.09-.216-.153-.32-.472-.763-1.337-1.134-2.592-1.118-.013.016-.04.018-.083.012-.042-.008-.07-.008-.092 0-.064.014-.127.02-.188.025-.063.002-.124.012-.188.023-.17.04-.326.082-.476.127-.15.045-.288.105-.418.184-.2.13-.378.273-.528.432-.154.16-.276.35-.375.577-.025.064-.045.13-.057.193-.014.066-.03.133-.05.205 0 .05-.003.09-.01.117-.014.07-.016.16-.01.27.007.11.017.194.027.253.02.07.036.14.05.2.014.062.032.12.06.18.07.17.167.315.29.444.123.13.26.243.408.34.116.07.242.134.378.19.137.053.28.107.428.158.054.014.1.025.143.04.04.013.09.024.142.038.024.014.047.02.066.02.02 0 .047.008.08.02.097.033.2.06.306.082.104.025.21.052.313.085.052.014.1.02.14.033.043.01.087.02.13.033.117.038.237.075.356.11.12.037.23.084.325.143.054.022.087.044.108.056.155.098.265.234.328.41.015.03.026.074.035.135.01.06.01.11-.004.155-.05.226-.142.388-.272.485-.13.096-.305.174-.523.232-.03.014-.065.02-.102.025-.035.002-.068.008-.102.014-.045 0-.077.005-.097.01-.053.013-.123.02-.214.02s-.16-.008-.216-.02h-.048c-.052-.013-.1-.02-.142-.02s-.085-.007-.13-.02c-.207-.056-.383-.13-.525-.222-.038-.025-.077-.057-.115-.088-.04-.03-.077-.068-.108-.107-.044-.057-.086-.12-.126-.184-.038-.065-.072-.138-.095-.214-.032-.077-.056-.153-.067-.228-.014-.074-.055-.13-.127-.162-.045-.018-.097-.027-.155-.027h-.776c-.077 0-.146.003-.208.013-.063.01-.107.04-.14.094-.034.038-.046.097-.04.17.006.073.017.138.028.19.015.046.02.087.024.126.005.04.012.078.025.117.058.213.14.398.243.553.16.258.362.47.602.627s.518.29.834.393c.072.025.15.045.234.06s.166.028.243.048c.03.007.06.013.086.015s.055.006.088.006c.04.013.082.02.13.013.05-.002.097.004.142.016h.1c.03.007.086.01.164.01.077 0 .13-.003.162-.01.015-.007.032-.01.056-.005l.052.004h.078c.04-.013.08-.02.12-.017.043.006.087 0 .134-.012.098-.02.192-.034.29-.044.098-.01.192-.032.282-.064.13-.045.254-.09.374-.135.12-.046.233-.104.344-.177.036-.023.077-.05.11-.076.038-.027.07-.05.104-.078.046-.032.087-.065.126-.103.038-.035.074-.072.108-.11.018-.034.04-.06.067-.083.024-.02.052-.05.076-.082.066-.092.12-.188.168-.28.044-.1.087-.206.124-.323.022-.065.036-.13.046-.194.012-.063.022-.132.036-.204v-.173c.01-.03.01-.064 0-.096 0-.157-.014-.284-.04-.388-.005-.014-.008-.03-.008-.046zM18.847 4.253c0-.033-.002-.063-.01-.088v-.05c-.007-.032-.015-.063-.024-.093s-.023-.05-.043-.062c-.055-.033-.122-.05-.202-.055-.082-.002-.164-.004-.25-.004h-4.972c-.053.013-.09.024-.108.04-.052.03-.083.08-.093.144-.01.066-.016.143-.016.227v.48c0 .054 0 .106.003.157.004.054.015.097.035.13.025.04.063.068.117.088.05.012.122.018.21.014.09-.003.168-.007.24-.007h.912c.137 0 .255.006.357.016.1.01.168.07.2.18.014.028.018.054.01.08s-.008.056 0 .087c.014.04.02.084.016.133s-.007.097-.007.144v4.79c0 .08.018.147.05.198.034.04.082.064.144.07.062.008.13.01.2.01h.834c.06 0 .11-.006.158-.02.072-.033.113-.086.123-.162.01-.076.016-.166.016-.27V5.813c0-.04-.002-.086-.006-.133-.003-.05 0-.096.006-.135.014-.03.016-.063.01-.088-.006-.025-.006-.055 0-.088.033-.113.096-.174.19-.184.096-.01.207-.016.34-.016h1c.137 0 .255 0 .353-.007.097-.008.163-.066.196-.178.013-.04.018-.08.014-.12-.003-.044-.004-.087-.004-.134v-.477zM0 4v7h9V4L4.47 0 0 4z"/>
    </symbol>
    <symbol id="icon-twitter" viewBox="0 0 17 14">
      <title>icon-twitter icon</title>
      <path d="M16.53.256c-.676.41-1.417.7-2.212.86C13.678.433 12.77 0 11.768 0 9.845 0 8.28 1.584 8.28 3.537c0 .276.033.547.09.804C5.48 4.195 2.905 2.787 1.187.65c-.3.523-.472 1.13-.472 1.776 0 1.227.615 2.313 1.552 2.943-.574-.02-1.112-.176-1.58-.444v.047c0 1.714 1.2 3.144 2.797 3.47-.292.076-.602.124-.92.124-.225 0-.442-.027-.656-.07.445 1.41 1.732 2.43 3.257 2.46-1.192.944-2.692 1.513-4.33 1.513-.283 0-.558-.02-.833-.05C1.546 13.42 3.38 14 5.347 14c6.417 0 9.925-5.385 9.925-10.057 0-.152-.004-.305-.01-.453.682-.5 1.27-1.127 1.74-1.832-.623.28-1.298.473-2.004.557.72-.436 1.274-1.13 1.535-1.96z"/>
    </symbol>
    <symbol id="icon-user" viewBox="0 0 19 20">
      <title>icon-user icon</title>
      <path d="M9.5 12c2.485 0 4.5-2.015 4.5-4.5v-3C14 2.015 11.985 0 9.5 0S5 2.015 5 4.5v3C5 9.985 7.015 12 9.5 12zm8.5 4l-7-2H8l-7 2s-1-.002-1 1v2c0 .656.344 1 1 1h17c.656 0 1-.344 1-1v-2c0-.983-1-1-1-1z"/>
    </symbol>
    <symbol id="icon-v" viewBox="0 0 28 33">
      <title>icon-v icon</title>
      <path d="M18 1c3.33 0 4.48 1.057 3 4L10 26 7 5c-.37-2.89 1.67-4 5-4V0H0v1c3.014 0 3.47 1.2 4 5l4 27h1L23 6c1.903-3.906 2.092-5 5-5V0H18v1z"/>
    </symbol>
    <symbol id="icon-view" viewBox="0 0 28 18.001">
      <title>icon-view icon</title>
      <path d="M14 0C6.115 0 0 9 0 9c6.854 9.277 12.03 9 14 9 8.19 0 13.708-8.513 14-9C22.823.537 15.337.028 14 0zm0 13.995c-2.756 0-4.99-2.237-4.99-5S11.245 4 14 4c2.755 0 4.988 2.235 4.988 4.997S16.755 13.995 14 13.995zm-.004-7c-1.1 0-1.99.9-1.99 2.008s.892 2.008 1.99 2.008c1.098 0 1.987-.897 1.987-2.006 0-1.107-.89-2.007-1.987-2.007z"/>
    </symbol>
    <symbol id="icon-youtube" viewBox="0 0 20 12">
      <title>icon-youtube icon</title>
      <path d="M17 0H3C1.03 0 0 .656 0 6.03 0 11.323 1.063 12 3 12h14c1.97 0 3-.698 3-5.906C20 .634 18.906 0 17 0zM8 10.008V1.992L14 6l-6 4.008z"/>
    </symbol></svg>