<svg xmlns="http://www.w3.org/2000/svg" width="134" height="36" viewBox="0 0 134 36"><path d="M79.872 28.815c2.885 0 6.993-1.365 9.46-4.733.062 3.04 1.798 4.357 4.017 4.357 1.508 0 4.052-.48 6.113-3.367.384 2.34 1.973 3.366 3.936 3.366 1.58 0 3.687-.49 5.57-3.574.263 2.37 1.58 3.573 3.727 3.573 1.523 0 3.903-.493 5.882-3.455.49 2.177 2.21 3.454 5.108 3.454 7.98 0 10.313-8.314 10.313-12.716 0-4.777-1.806-6.432-4.44-6.432-.752 0-1.544.113-3.087 1.053l1.807-8.464-5.57.753-4.027 18.847c-.564 1.918-1.58 3.31-3.05 3.31-1.053 0-1.542-.34-1.542-1.392 0-.376.038-.79.15-1.204l2.71-12.79h-5.42l-2.56 12.076c-.564 1.918-1.543 3.31-3.012 3.31-.864 0-1.128-.677-1.128-1.542 0-.338.038-.678.112-1.054l2.71-12.79h-5.42l-2.56 12.076c-.565 1.918-1.92 3.31-3.39 3.31-1.052 0-1.542-.34-1.542-1.392 0-.376.038-.79.15-1.204L99.22 1.88l-5.57.753-4.03 18.847c-.008.043-.01.078-.02.12-1.764 2.27-4.302 3.604-7.206 3.604-3.65 0-4.517-2.407-4.517-5.868 0-7.674 3.65-17.567 7.83-17.567C87.398 1.77 88 2.86 88 4.062c0 1.467-.828 3.01-1.732 3.46.717.865 1.544.978 2.146.978 1.92 0 2.636-1.466 2.636-3.46 0-3.61-2.785-5.04-6.286-5.04-9.86 0-13.137 12.752-13.137 19.56 0 6.772 2.673 9.255 8.242 9.255zm44.04-6.62l2.07-9.555c.414-.527 1.694-.677 2.22-.677 1.356 0 1.997 1.768 1.997 3.61 0 3.95-1.96 9.217-4.405 9.217-1.317 0-1.995-.563-1.995-1.73 0-.264.038-.565.113-.866zm-98.88 6.017l3.01-14.294c.94-.865 1.58-1.43 2.75-1.43 1.09 0 .074 2.483 2.182 2.483 1.807 0 2.71-1.428 2.71-2.745 0-1.467-.903-2.82-2.598-2.82-1.807 0-3.237 1.165-4.554 2.33l.49-2.33H23.6L19.61 28.21h5.42zM14.98 12.452L13.36 19.6c-.79 1.052-1.806 1.39-3.198 1.39-3.124 0-4.366-2.896-4.366-6.206 0-6.02 4.216-13.015 8.356-13.015 2.41 0 2.597 2.068 2.597 2.67 0 .94-.754 2.783-1.658 3.083.716.79 1.995.978 2.598.978 1.92 0 2.635-1.466 2.635-3.46 0-3.61-3.5-5.04-7-5.04C4.93 0 0 7.298 0 14.483c0 5.23 1.92 9.63 8.092 9.63.3 0 2.41-.15 4.592-1.354L11.18 29.49c-.904 3.913-2.034 4.627-3.765 4.627-1.62 0-2.372-1.242-2.372-2.56 0-1.392.866-2.857 2.635-2.857.753 0 1.317.188 2.258.978.15-.563.226-1.052.226-1.504 0-2.407-2.183-2.52-3.688-2.52-2.974 0-4.592 2.595-4.592 5.153 0 2.557 1.656 5.19 5.232 5.19 6.173 0 8.43-3.612 9.636-9.367l3.086-14.145-4.856-.036zm19.912 11.473c0 3.16 1.77 4.514 4.028 4.514 1.58 0 3.69-.49 5.57-3.574.264 2.37 1.582 3.573 3.727 3.573 1.524 0 3.904-.493 5.883-3.456.49 2.178 2.21 3.455 5.108 3.455 7.98 0 10.314-8.314 10.314-12.716 0-4.777-1.808-6.432-4.44-6.432-.755 0-1.545.113-3.088 1.053L63.8 1.88l-5.57.753-4.028 18.847c-.564 1.918-1.58 3.31-3.048 3.31-1.054 0-1.543-.34-1.543-1.392 0-.376.04-.79.15-1.204l2.712-12.79h-5.42l-2.56 12.076c-.565 1.918-1.543 3.31-3.012 3.31-.866 0-1.13-.677-1.13-1.542 0-.338.04-.678.114-1.054l2.71-12.79h-5.42l-2.56 12.076c-.188.94-.302 1.768-.302 2.445zm24.543-1.73l2.07-9.555c.414-.527 1.693-.677 2.22-.677 1.356 0 1.995 1.768 1.995 3.61 0 3.95-1.957 9.217-4.404 9.217-1.316 0-1.995-.563-1.995-1.73 0-.264.04-.565.115-.866zM18 35h113v-2H18.44L18 35z"/></svg>