<svg xmlns="http://www.w3.org/2000/svg" width="68.685" height="11.051" viewBox="0 0 68.685 11.051"><path fill="#fff" d="M48.596 7.11c-.007-.034-.007-.07-.004-.112.004-.04-.003-.082-.014-.12-.015-.04-.02-.08-.02-.122 0-.043-.007-.086-.02-.13-.02-.073-.035-.144-.05-.21-.012-.068-.028-.135-.047-.2-.03-.097-.064-.187-.09-.27-.03-.084-.064-.172-.105-.264-.05-.123-.11-.236-.184-.344-.07-.105-.14-.213-.212-.316l-.088-.102-.097-.102c-.057-.078-.13-.154-.223-.228-.09-.072-.18-.14-.26-.197-.268-.188-.568-.336-.904-.443s-.734-.152-1.193-.143c-.014.01-.032.01-.054 0-.024-.004-.043-.004-.055 0l-.29.03c-.034.005-.065.01-.094.01-.028 0-.06.007-.09.02-.092.026-.184.05-.276.07-.096.017-.183.044-.27.075-.36.15-.668.328-.923.535-.252.207-.474.467-.668.777-.064.096-.12.2-.164.31-.045.112-.095.222-.146.33-.04.105-.066.21-.088.317-.02.106-.045.216-.078.325-.013.03-.02.066-.02.102s-.006.07-.02.102c-.012.038-.017.08-.013.12 0 .043-.004.086-.015.13v.06c-.007.033-.007.063 0 .092.006.03.006.06 0 .094-.014.03-.02.082-.02.148 0 .07.006.12.02.152.006.037.006.078 0 .123-.007.038-.007.08 0 .118.01.025.016.053.015.082-.004.03-.004.06.003.094.014.05.023.102.03.148.006.05.017.096.027.143.01.025.01.05.01.072 0 .023.007.05.02.082.034.103.062.204.088.306.027.1.06.195.1.285.167.39.387.726.653 1.007.27.28.598.506.987.674.07.034.144.064.217.09l.22.077c.05.014.103.025.153.033.053.01.104.02.157.035.052.012.1.02.146.023.044.004.093.012.145.023h.107c.03.01.063.01.092.005.028-.002.06 0 .093.008.02.006.062.01.126.014.063.004.108.002.136-.006l.32-.026c.033-.008.065-.012.102-.012.037 0 .07-.004.102-.018.072-.014.144-.025.213-.04.07-.013.144-.032.214-.058.484-.162.893-.393 1.223-.693.33-.3.593-.68.786-1.133.046-.104.083-.21.112-.32.028-.11.06-.22.092-.338.014-.047.023-.092.03-.137.006-.047.015-.092.03-.137.01-.07.018-.143.018-.213s.007-.14.02-.203v-.126c.013-.04.018-.107.014-.2-.003-.093-.012-.16-.025-.198v-.08zm-1.503.486v.17c0 .03-.004.055-.01.082l-.03.232c-.025.084-.047.168-.063.254-.016.084-.04.16-.073.232-.11.28-.243.504-.402.678-.16.176-.376.318-.655.428-.06.027-.12.045-.184.055l-.195.033c-.03.014-.06.02-.085.016s-.057-.002-.09.006h-.2c-.04 0-.08-.008-.118-.02-.033-.007-.063-.01-.092-.005-.03.004-.06-.002-.093-.014l-.258-.08c-.08-.025-.155-.06-.23-.105l-.11-.06c-.035-.02-.07-.046-.1-.077-.157-.108-.288-.25-.39-.43-.105-.18-.19-.37-.262-.58-.026-.063-.045-.13-.054-.202-.013-.072-.024-.143-.044-.215 0-.025-.002-.05-.005-.072-.005-.02-.006-.046-.006-.07-.008-.028-.01-.054-.01-.083s-.005-.057-.01-.082v-.11c-.013-.032-.018-.09-.016-.18.003-.085.012-.147.026-.18.005-.032.005-.067 0-.106-.01-.038-.006-.075.01-.108.005-.025.01-.05.01-.072s.002-.047.008-.072c.02-.07.035-.14.044-.207.01-.07.023-.138.045-.21.098-.29.226-.54.384-.746.157-.21.372-.37.645-.486.058-.025.12-.047.188-.063s.137-.033.208-.045c.032-.014.062-.018.09-.014.025.002.05 0 .075-.006.015-.006.03-.008.046-.004s.03.002.044-.006c.48 0 .854.102 1.122.307.268.203.473.47.615.8.033.073.058.142.078.216l.06.213c.013.04.02.074.02.107.01.045.02.092.024.14.002.05.008.1.022.15.012.026.018.05.015.073-.004.023-.003.045.005.072v.164c.012.035.02.08.02.14 0 .064-.008.11-.02.144zM25.226 3.893c-.123.004-.236.006-.35.006-.057 0-.126-.003-.205-.007-.076-.002-.156-.002-.233 0-.08.004-.15.014-.212.025-.062.014-.103.035-.122.068-.045.053-.067.145-.063.275.002.132.005.245.005.343v1.275c0 .092.003.197.01.314s-.007.205-.04.266c-.046.078-.13.117-.256.12-.124.005-.246.007-.364.007h-1.882c-.053-.014-.1-.02-.142-.025-.044-.004-.08-.023-.113-.063-.053-.072-.076-.18-.07-.318.007-.144.01-.27.01-.38V4.168c0-.035-.006-.07-.02-.104-.033-.09-.09-.14-.17-.15-.084-.012-.18-.016-.292-.016h-.783c-.014 0-.027.002-.043.004-.017.004-.03.006-.046.006-.063.02-.11.053-.137.098-.026.047-.04.11-.04.188v6.188c0 .092.005.18.01.264.007.086.036.148.09.186.052.04.143.06.272.057.132-.005.242-.007.335-.007.058 0 .127.002.206.006h.23c.075-.005.144-.013.206-.022.06-.01.103-.03.122-.064.038-.06.058-.143.058-.254v-2.1c0-.034 0-.07-.003-.114-.006-.043-.003-.08.003-.113v-.098c.015-.064.027-.115.04-.146.026-.042.056-.065.088-.075.034-.01.076-.02.13-.033h2.312c.125 0 .21.045.256.135.005.02.008.04.008.06s.004.04.013.06v.098c.006.025.008.053.005.078-.005.027-.005.053-.005.078v1.708c0 .053-.003.113-.005.182-.005.068-.005.137 0 .205.002.068.01.135.02.197.01.063.023.105.043.13.02.036.06.056.122.065.063.01.132.018.206.02.076.003.15.003.225 0 .075-.003.144-.005.202-.005.11 0 .23.002.357.006.128.002.222-.02.28-.074.045-.033.067-.092.067-.176v-6.51c0-.073-.022-.128-.067-.16-.06-.054-.15-.077-.27-.075zm6.966 5.85c-.02-.052-.055-.09-.107-.108-.04-.02-.084-.03-.133-.03h-2.927c-.033 0-.07.003-.108.007-.04.002-.075.002-.107-.006h-.098c-.034-.012-.065-.02-.094-.023-.03-.004-.055-.016-.073-.035-.046-.033-.075-.08-.084-.143-.01-.063-.013-.133-.013-.21V8.167c0-.033.003-.068.01-.102.02-.06.05-.104.093-.133s.096-.05.157-.06.128-.013.2-.01c.07.005.146.007.227.007h1.91c.047 0 .104 0 .173.004s.138.006.204.006c.07 0 .134-.004.19-.01.055-.008.1-.02.132-.04.038-.034.065-.075.08-.128.012-.033.017-.072.017-.117V7.45c0-.054 0-.116.005-.19.002-.07.002-.142 0-.21-.004-.068-.01-.133-.023-.19-.014-.06-.037-.1-.07-.118-.025-.02-.066-.033-.122-.04s-.116-.01-.182-.015c-.064-.004-.132-.004-.202 0-.067.004-.125.006-.17.006H28.86c-.06 0-.115-.002-.167-.006-.053-.004-.1-.018-.14-.043-.03-.02-.054-.047-.065-.084-.016-.035-.027-.08-.04-.13v-.846c0-.076.004-.148.014-.21s.038-.108.084-.142c.026-.02.067-.035.126-.045.06-.01.123-.016.192-.02.067-.002.138-.002.206 0 .068.004.13.004.182.004h2.64c.057 0 .105-.01.145-.036.045-.027.077-.078.098-.158 0-.064.004-.113.01-.146.007-.045.008-.094.004-.143-.003-.05-.006-.1-.006-.152 0-.045.003-.094.005-.146.003-.054.002-.103-.006-.147v-.11c-.012-.025-.02-.05-.023-.076-.002-.027-.01-.05-.023-.07-.033-.045-.085-.072-.156-.078-.07-.007-.146-.01-.226-.01H27.19c-.013.007-.025.007-.037.003-.016-.002-.027 0-.04.006-.07.02-.12.052-.147.097-.027.033-.04.078-.04.137v6.48c0 .062.013.11.04.15.033.052.084.083.152.093s.15.016.24.016h4.613c.064 0 .114-.016.153-.05.053-.032.083-.083.088-.15.01-.07.01-.144.01-.222v-.45c0-.053 0-.102-.004-.146 0-.05-.01-.09-.024-.12zm8.13-5.784c-.122.003-.237.005-.35.005-.056 0-.123-.002-.2-.006-.08-.005-.156-.005-.234 0s-.148.01-.208.024c-.062.012-.104.035-.122.066-.045.053-.065.143-.063.273 0 .13.005.242.005.338v1.265c0 .09.003.193.01.31.005.118-.007.204-.04.263-.044.078-.128.117-.252.12s-.242.007-.36.007h-1.862c-.053-.014-.1-.02-.14-.025-.042-.002-.08-.023-.113-.063-.05-.07-.073-.176-.067-.316.007-.138.01-.263.01-.372V4.23c0-.035-.007-.068-.02-.1-.032-.092-.09-.143-.17-.152-.082-.01-.177-.014-.287-.014h-.778c-.012 0-.027 0-.045.004-.016.004-.03.006-.04.006-.066.02-.11.05-.137.096s-.04.105-.04.186v6.127c0 .09.002.178.01.262.007.084.037.145.088.184.052.038.14.058.27.054.13-.004.242-.004.33-.004.06 0 .126 0 .206.004.077.004.153.004.228 0 .075-.004.143-.01.204-.02.06-.012.103-.033.12-.064.04-.06.06-.143.06-.252v-2.08c0-.032 0-.067-.006-.11-.004-.043 0-.078.006-.113v-.097c.012-.064.025-.113.037-.146.027-.037.056-.06.09-.072.03-.01.073-.02.125-.033h2.29c.124 0 .208.045.254.137.006.02.01.04.01.057 0 .02.002.04.01.06v.096c.005.027.008.055.004.08-.003.024-.006.05-.006.076v1.688c0 .053-.004.113-.005.18-.003.068-.003.137 0 .203 0 .068.01.133.02.195.01.06.023.105.043.13.02.032.06.054.122.065.06.01.13.016.202.02.074.004.15.004.225 0 .073-.004.143-.004.2-.004.11 0 .227 0 .353.003.126.004.218-.02.274-.074.048-.032.07-.09.07-.175V4.193c0-.074-.022-.13-.07-.162-.056-.05-.144-.075-.263-.07zm28.357 5.907c-.003-.045-.01-.084-.024-.115-.02-.053-.054-.09-.105-.11-.04-.017-.083-.026-.132-.026H65.52c-.03 0-.066.002-.106.004-.037.004-.073.002-.106-.004h-.098c-.03-.014-.063-.02-.09-.025-.03 0-.056-.013-.074-.032-.045-.033-.074-.078-.083-.14-.01-.062-.014-.132-.014-.21V8.19c0-.032.002-.067.006-.1.022-.058.053-.103.094-.132.044-.03.095-.047.156-.06.06-.01.128-.01.2-.01.07.005.145.007.222.007h1.893c.046 0 .105.002.17.004.07.005.14.005.206.005s.13-.004.184-.01c.057-.008.1-.02.132-.04.037-.03.063-.073.078-.124.013-.032.02-.07.02-.116V7.48c0-.052 0-.114.004-.185.002-.072.002-.14 0-.21-.005-.067-.01-.13-.023-.19-.014-.058-.034-.097-.068-.116-.024-.02-.064-.032-.12-.038-.056-.008-.115-.014-.18-.016-.065-.004-.132-.004-.2 0-.066.002-.124.006-.17.006H65.36c-.058 0-.11-.004-.165-.006-.05-.004-.097-.018-.135-.045-.033-.017-.055-.046-.068-.08-.012-.036-.026-.08-.038-.132v-.833c0-.078.005-.148.014-.21.01-.062.038-.108.083-.142.024-.018.066-.033.123-.043.06-.008.124-.014.19-.02.067-.002.137-.002.204 0 .068.006.128.006.18.006h2.612c.057 0 .105-.014.145-.037.045-.03.076-.08.096-.157 0-.066.007-.115.012-.146.006-.045.01-.094.005-.14-.002-.05-.005-.1-.005-.15 0-.046.003-.097.005-.146.004-.052 0-.1-.005-.147v-.106c-.013-.025-.02-.05-.023-.076-.004-.026-.013-.05-.026-.07-.032-.044-.084-.07-.152-.075-.073-.008-.148-.01-.226-.01H63.71c-.014.006-.026.008-.04.004-.01-.005-.024-.003-.038.005-.07.02-.12.05-.146.096-.025.034-.037.08-.037.138v6.414c0 .06.01.11.036.15.034.05.083.08.152.092.067.01.146.016.236.016h4.568c.063 0 .113-.018.15-.05.053-.032.082-.083.09-.15.003-.07.008-.14.008-.22v-.447c-.005-.052-.006-.1-.01-.146zM55.402 3.965c-.047-.014-.094-.018-.142-.016-.048.003-.098.003-.148.003h-.62c-.072 0-.138.006-.197.016-.058.01-.102.034-.135.07-.038.054-.056.136-.054.243.003.11.006.21.006.305v3.23c0 .246-.008.484-.02.715-.014.23-.055.428-.126.598-.052.108-.122.208-.21.296-.088.086-.187.156-.306.21-.052.024-.123.046-.214.067-.045.012-.093.02-.146.027-.052.008-.103.018-.155.03h-.146c-.022.007-.06.01-.117.015s-.1 0-.126-.006c-.034-.005-.062-.01-.088-.005s-.057 0-.088-.014c-.053-.013-.104-.022-.156-.028-.05-.008-.104-.016-.155-.03-.187-.065-.337-.15-.45-.26-.114-.112-.206-.25-.277-.42-.024-.07-.043-.142-.054-.216-.01-.07-.02-.14-.036-.21-.004-.026-.008-.064-.008-.108-.012-.05-.017-.11-.014-.174.003-.066.004-.127.004-.186v-.153c-.007-.027-.007-.053-.004-.084.003-.026.004-.054.004-.08V4.48c0-.085 0-.167-.004-.25-.003-.08-.02-.145-.055-.198-.032-.037-.082-.06-.15-.066-.067-.006-.137-.012-.208-.012h-.826c-.014.008-.025.012-.038.012h-.04c-.063.02-.115.05-.154.098-.02.036-.03.086-.03.147v4.26c0 .226.028.43.078.61.015.033.02.06.02.084s.006.05.02.08c.045.15.095.287.15.414.055.127.125.248.208.363.245.358.586.616 1.02.774.436.158.958.234 1.573.227.093 0 .186 0 .28-.007.1-.008.187-.016.264-.03.04-.013.077-.02.113-.02.035 0 .073-.004.11-.018.06-.014.12-.025.18-.04.063-.013.122-.026.18-.048.27-.09.51-.207.71-.35.226-.154.408-.346.548-.568s.254-.49.346-.792c.052-.188.08-.398.087-.63.006-.233.01-.472.01-.718V4.537c0-.078.002-.164.004-.258.005-.095-.01-.167-.04-.218-.028-.046-.088-.078-.177-.097zm6.97 4.392c0-.016-.002-.033-.01-.053-.024-.066-.05-.13-.072-.195-.02-.064-.05-.124-.082-.175-.11-.176-.228-.318-.354-.428-.128-.11-.276-.22-.45-.33-.11-.072-.235-.127-.375-.164-.14-.04-.275-.082-.404-.13-.032-.01-.064-.017-.097-.017-.034 0-.065-.008-.098-.02-.182-.05-.363-.098-.55-.14-.184-.042-.362-.093-.537-.15-.078-.026-.155-.048-.23-.064-.073-.018-.145-.04-.217-.072-.13-.053-.243-.107-.336-.162-.093-.053-.168-.148-.218-.285-.012-.033-.023-.078-.03-.13-.005-.058-.002-.106.01-.15.034-.177.092-.308.172-.394.08-.09.194-.165.343-.23.09-.038.194-.065.31-.08.118-.01.236-.015.356-.007.118.006.236.02.35.043.112.02.207.05.285.082.086.047.173.102.264.164.05.04.1.096.146.166.045.072.08.14.106.203.03.073.06.146.08.216.018.07.066.123.144.154.038.014.088.02.146.02h.785c.074 0 .14-.004.196-.014s.102-.033.136-.072c.026-.033.04-.082.045-.152.003-.066-.002-.127-.015-.178-.033-.13-.066-.25-.102-.36-.037-.11-.09-.216-.152-.32-.472-.763-1.337-1.134-2.592-1.118-.013.016-.04.018-.083.012-.042-.008-.07-.008-.092 0-.064.014-.127.02-.188.025-.063.002-.124.012-.188.023-.17.04-.326.082-.476.127-.15.045-.288.105-.418.184-.2.13-.378.273-.528.432-.154.16-.276.35-.375.577-.025.064-.045.13-.057.193-.014.066-.03.133-.05.205 0 .05-.003.09-.01.117-.014.07-.016.16-.01.27.007.11.017.194.027.253.02.07.036.14.05.2.014.062.032.12.06.18.07.17.167.315.29.444.123.13.26.243.408.34.116.07.242.134.378.19.137.053.28.107.428.158.053.014.1.025.142.04.04.013.09.024.142.038.024.014.047.02.066.02.02 0 .046.008.078.02.098.033.2.06.307.082.104.025.21.052.313.085.053.014.1.02.142.033.042.01.086.02.13.033.116.038.236.075.355.11.12.037.23.084.325.143.053.023.086.045.107.057.155.098.265.234.328.41.015.03.026.074.035.135.01.06.01.11-.005.154-.05.226-.142.388-.272.485-.13.096-.305.174-.523.232-.03.014-.066.02-.103.025-.035.002-.068.008-.102.014-.045 0-.077.004-.097.008-.052.014-.122.02-.213.02s-.16-.007-.216-.02h-.048c-.052-.012-.1-.02-.142-.02s-.085-.006-.13-.018c-.207-.057-.383-.13-.525-.223-.038-.025-.077-.057-.115-.088-.04-.03-.077-.068-.108-.107-.044-.057-.086-.12-.126-.184-.038-.064-.072-.137-.095-.213-.033-.077-.057-.153-.068-.228-.014-.074-.055-.13-.127-.162-.045-.018-.097-.027-.155-.027h-.777c-.077 0-.146.004-.208.014-.063.01-.107.04-.14.094-.034.038-.046.097-.04.17.006.073.017.138.028.19.015.046.02.087.024.126.005.04.012.078.025.117.058.213.14.398.243.553.16.258.362.47.602.627s.518.29.834.393c.072.025.15.045.234.06s.166.028.243.048c.032.006.062.012.087.014s.055.006.088.006c.04.012.082.018.13.012.05-.002.097.004.142.016h.1c.03.008.086.01.164.01.077 0 .13-.002.162-.01.015-.006.032-.008.056-.004l.052.004h.078c.04-.012.08-.018.12-.016.043.006.087 0 .134-.012.098-.02.192-.035.29-.045.098-.01.192-.032.282-.064.13-.045.254-.09.374-.135.12-.046.233-.104.344-.177.036-.023.077-.05.11-.076.038-.027.07-.05.104-.078.046-.032.087-.065.126-.103.038-.035.074-.072.108-.11.018-.034.04-.06.067-.083.024-.02.052-.05.076-.082.066-.092.12-.188.168-.28.043-.1.086-.206.123-.323.022-.065.036-.13.046-.194.012-.064.022-.133.036-.205v-.173c.01-.03.01-.064 0-.096 0-.157-.014-.284-.04-.388-.005-.013-.008-.03-.008-.045zM18.847 4.252c0-.033-.002-.063-.01-.088v-.05c-.007-.032-.015-.063-.024-.093s-.023-.05-.043-.063c-.055-.033-.122-.05-.202-.055-.082-.002-.164-.004-.25-.004h-4.972c-.053.014-.09.025-.108.04-.052.032-.083.08-.093.145-.01.066-.016.143-.016.227v.48c0 .053 0 .105.004.156.004.054.015.097.035.13.025.04.063.068.117.088.05.012.122.018.21.014.09-.002.168-.006.24-.006h.912c.137 0 .255.006.357.016.1.01.168.07.2.182.014.027.018.053.01.078s-.008.057 0 .088c.014.04.02.084.016.133s-.007.097-.007.144v4.79c0 .08.018.147.05.198.034.04.082.064.144.07.062.008.13.01.2.01h.834c.06 0 .11-.006.157-.02.072-.033.113-.086.123-.162.01-.076.015-.166.015-.27V5.813c0-.04-.002-.086-.006-.133-.003-.05 0-.096.006-.135.014-.03.016-.063.01-.088-.006-.025-.006-.055 0-.088.033-.112.096-.173.19-.183.096-.01.207-.016.34-.016h1c.137 0 .255 0 .353-.007.098-.008.164-.066.197-.178.013-.04.018-.08.014-.12-.003-.044-.004-.087-.004-.134v-.478zM0 4v7h9V4L4.47 0 0 4z"/></svg>